<svg width="304pt" height="264pt"
 viewBox="0.00 0.00 304.15 264.00" xmlns="http://www.w3.org/2000/svg" xmlns:xlink="http://www.w3.org/1999/xlink">
<g id="graph0" class="graph" transform="scale(.734 .734) rotate(0) translate(4 355.6611)">
<polygon fill="#ffffff" stroke="transparent" points="-4,4 -4,-355.6611 410.3559,-355.6611 410.3559,4 -4,4"/>
<!-- S -->
<g id="node1" class="node">
<title>S</title>
<ellipse fill="none" stroke="#000000" cx="199.1315" cy="-37" rx="27" ry="18"/>
<text text-anchor="middle" x="199.1315" y="-32.8" font-family="Times,serif" font-size="14.00" fill="#ff0000">S:e</text>
</g>
<!-- XL -->
<g id="node2" class="node">
<title>XL</title>
<ellipse fill="none" stroke="#000000" cx="239.5445" cy="-105.431" rx="31.339" ry="18"/>
<text text-anchor="middle" x="239.5445" y="-101.231" font-family="Times,serif" font-size="14.00" fill="#000000">XL:x</text>
</g>
<!-- S&#45;&gt;XL -->
<g id="edge1" class="edge">
<title>S&#45;&gt;XL</title>
<path fill="none" stroke="#000000" d="M209.1212,-53.9155C213.6528,-61.5889 219.1148,-70.8376 224.1528,-79.3683"/>
<polygon fill="#000000" stroke="#000000" points="221.2901,-81.404 229.389,-88.2347 227.3175,-77.8443 221.2901,-81.404"/>
<text text-anchor="middle" x="211.1917" y="-70.8419" font-family="Times,serif" font-size="14.00" fill="#000000">:h</text>
</g>
<!-- NewX -->
<g id="node3" class="node">
<title>NewX</title>
<ellipse fill="none" stroke="#00ff00" cx="125.634" cy="-67.2381" rx="44.0002" ry="18"/>
<text text-anchor="middle" x="125.634" y="-63.0381" font-family="Times,serif" font-size="14.00" fill="#00ff00">NewX:x</text>
</g>
<!-- S&#45;&gt;NewX -->
<g id="edge2" class="edge">
<title>S&#45;&gt;NewX</title>
<path fill="none" stroke="#00ff00" d="M175.8764,-46.5675C172.7538,-47.8522 169.4802,-49.199 166.1651,-50.5629"/>
<polygon fill="#00ff00" stroke="#00ff00" points="164.7198,-47.3729 156.8035,-54.4144 167.3831,-53.8464 164.7198,-47.3729"/>
<text text-anchor="middle" x="165.5755" y="-35.9652" font-family="Times,serif" font-size="14.00" fill="#00ff00">:v</text>
</g>
<!-- NewC -->
<g id="node5" class="node">
<title>NewC</title>
<ellipse fill="none" stroke="#00ff00" cx="166.0409" cy="-135.7385" rx="62.5373" ry="18"/>
<text text-anchor="middle" x="166.0409" y="-131.5385" font-family="Times,serif" font-size="14.00" fill="#00ff00">NewC:cursor</text>
</g>
<!-- XL&#45;&gt;NewC -->
<g id="edge3" class="edge">
<title>XL&#45;&gt;NewC</title>
<path fill="none" stroke="#00ff00" d="M213.8365,-116.0311C213.1224,-116.3255 212.4021,-116.6225 211.6769,-116.9215"/>
<polygon fill="#00ff00" stroke="#00ff00" points="209.9834,-113.8339 202.0727,-120.8816 212.6518,-120.3053 209.9834,-113.8339"/>
<text text-anchor="middle" x="207.3114" y="-103.8763" font-family="Times,serif" font-size="14.00" fill="#00ff00">:v</text>
</g>
<!-- NewX&#45;&gt;NewC -->
<g id="edge7" class="edge">
<title>NewX&#45;&gt;NewC</title>
<path fill="none" stroke="#00ff00" d="M136.0397,-84.8787C140.3891,-92.2519 145.5377,-100.9801 150.3308,-109.1058"/>
<polygon fill="#00ff00" stroke="#00ff00" points="147.4345,-111.0847 155.5299,-117.9196 153.4638,-107.5282 147.4345,-111.0847"/>
<text text-anchor="middle" x="137.74" y="-101.1923" font-family="Times,serif" font-size="14.00" fill="#00ff00">:h</text>
</g>
<!-- RN -->
<g id="node4" class="node">
<title>RN</title>
<ellipse fill="none" stroke="#000000" cx="308.1464" cy="-28.639" rx="42.2932" ry="18"/>
<text text-anchor="middle" x="308.1464" y="-24.439" font-family="Times,serif" font-size="14.00" fill="#ff0000">RN:row</text>
</g>
<!-- XR -->
<g id="node6" class="node">
<title>XR</title>
<ellipse fill="none" stroke="#000000" cx="320.4293" cy="-276.1603" rx="31.9205" ry="18"/>
<text text-anchor="middle" x="320.4293" y="-271.9603" font-family="Times,serif" font-size="14.00" fill="#000000">XR:x</text>
</g>
<!-- C -->
<g id="node7" class="node">
<title>C</title>
<ellipse fill="none" stroke="#000000" cx="364.2167" cy="-333.6611" rx="27" ry="18"/>
<text text-anchor="middle" x="364.2167" y="-329.4611" font-family="Times,serif" font-size="14.00" fill="#ff0000">C:e</text>
</g>
<!-- XR&#45;&gt;C -->
<g id="edge4" class="edge">
<title>XR&#45;&gt;C</title>
<path fill="none" stroke="#000000" d="M333.0944,-292.7919C336.94,-297.8418 341.2504,-303.5022 345.4093,-308.9636"/>
<polygon fill="#000000" stroke="#000000" points="342.8882,-311.43 351.7312,-317.2654 348.4573,-307.1891 342.8882,-311.43"/>
<text text-anchor="middle" x="333.8066" y="-305.0777" font-family="Times,serif" font-size="14.00" fill="#000000">:h</text>
</g>
<!-- R -->
<g id="node8" class="node">
<title>R</title>
<ellipse fill="none" stroke="#ffffff" cx="379.3559" cy="-18" rx="27" ry="18"/>
</g>
<!-- R&#45;&gt;RN -->
<g id="edge5" class="edge">
<title>R&#45;&gt;RN</title>
<path fill="none" stroke="#ffffff" d="M352.8401,-21.9616C352.7412,-21.9763 352.6423,-21.9911 352.5432,-22.0059"/>
<polygon fill="#ffffff" stroke="#ffffff" points="357.4047,-17.7405 348.0317,-22.6799 358.4391,-24.6637 357.4047,-17.7405"/>
</g>
<!-- ER -->
<g id="node9" class="node">
<title>ER</title>
<ellipse fill="none" stroke="#000000" cx="296.3465" cy="-208" rx="30.1938" ry="18"/>
<text text-anchor="middle" x="296.3465" y="-203.8" font-family="Times,serif" font-size="14.00" fill="#000000">ER:e</text>
</g>
<!-- ER&#45;&gt;XR -->
<g id="edge6" class="edge">
<title>ER&#45;&gt;XR</title>
<path fill="none" stroke="#000000" d="M302.674,-225.9083C305.1159,-232.8194 307.9659,-240.8856 310.6587,-248.5069"/>
<polygon fill="#000000" stroke="#000000" points="307.4289,-249.8722 314.0605,-258.135 314.0291,-247.5402 307.4289,-249.8722"/>
<text text-anchor="middle" x="301.221" y="-241.4076" font-family="Times,serif" font-size="14.00" fill="#000000">:v</text>
</g>
<!-- EL -->
<g id="node10" class="node">
<title>EL</title>
<ellipse fill="none" stroke="#000000" cx="310.2158" cy="-130.6888" rx="29.6127" ry="18"/>
<text text-anchor="middle" x="310.2158" y="-126.4888" font-family="Times,serif" font-size="14.00" fill="#000000">EL:e</text>
</g>
<!-- EL&#45;&gt;XL -->
<g id="edge8" class="edge">
<title>EL&#45;&gt;XL</title>
<path fill="none" stroke="#000000" d="M284.3017,-121.4271C281.5688,-120.4504 278.7547,-119.4446 275.9317,-118.4357"/>
<polygon fill="#000000" stroke="#000000" points="276.9986,-115.1003 266.404,-115.0305 274.6427,-121.6919 276.9986,-115.1003"/>
<text text-anchor="middle" x="274.6714" y="-124.1314" font-family="Times,serif" font-size="14.00" fill="#000000">:v</text>
</g>
<!-- NewS -->
<g id="node11" class="node">
<title>NewS</title>
<ellipse fill="none" stroke="#00ff00" cx="53.9423" cy="-45.0313" rx="53.8847" ry="18"/>
<text text-anchor="middle" x="53.9423" y="-40.8313" font-family="Times,serif" font-size="14.00" fill="#00ff00">NewS:start</text>
</g>
<!-- NewS&#45;&gt;NewX -->
<g id="edge9" class="edge">
<title>NewS&#45;&gt;NewX</title>
<path fill="none" stroke="#00ff00" d="M93.5625,-57.3038C93.6273,-57.3239 93.692,-57.344 93.7568,-57.364"/>
<polygon fill="#00ff00" stroke="#00ff00" points="83.3617,-57.8052 93.9509,-57.4241 85.4353,-51.1185 83.3617,-57.8052"/>
<text text-anchor="middle" x="88.2143" y="-44.7339" font-family="Times,serif" font-size="14.00" fill="#00ff00">:h</text>
</g>
</g>
</svg>
