<svg width="304pt" height="264pt"
 viewBox="0.00 0.00 303.89 264.00" xmlns="http://www.w3.org/2000/svg" xmlns:xlink="http://www.w3.org/1999/xlink">
<g id="graph0" class="graph" transform="scale(.755 .755) rotate(0) translate(4 345.6793)">
<polygon fill="#ffffff" stroke="transparent" points="-4,4 -4,-345.6793 398.5192,-345.6793 398.5192,4 -4,4"/>
<!-- S -->
<g id="node1" class="node">
<title>S</title>
<ellipse fill="none" stroke="#000000" cx="172.1019" cy="-36" rx="35.9271" ry="18"/>
<text text-anchor="middle" x="172.1019" y="-31.8" font-family="Times,serif" font-size="14.00" fill="#000000">S:start</text>
</g>
<!-- NewX -->
<g id="node2" class="node">
<title>NewX</title>
<ellipse fill="none" stroke="#ffffff" cx="98.6085" cy="-66.2589" rx="27" ry="18"/>
</g>
<!-- S&#45;&gt;NewX -->
<g id="edge1" class="edge">
<title>S&#45;&gt;NewX</title>
<path fill="none" stroke="#ffffff" d="M144.3172,-47.4396C139.9932,-49.2199 135.4929,-51.0727 131.0762,-52.8912"/>
<polygon fill="#ffffff" stroke="#ffffff" points="129.5561,-49.7319 121.6417,-56.7756 132.2212,-56.2048 129.5561,-49.7319"/>
</g>
<!-- XL -->
<g id="node3" class="node">
<title>XL</title>
<ellipse fill="none" stroke="#000000" cx="212.5239" cy="-104.429" rx="31.339" ry="18"/>
<text text-anchor="middle" x="212.5239" y="-100.229" font-family="Times,serif" font-size="14.00" fill="#000000">XL:x</text>
</g>
<!-- S&#45;&gt;XL -->
<g id="edge2" class="edge">
<title>S&#45;&gt;XL</title>
<path fill="none" stroke="#000000" d="M182.3021,-53.2675C186.7678,-60.8273 192.1057,-69.8638 197.0444,-78.2242"/>
<polygon fill="#000000" stroke="#000000" points="194.0868,-80.0991 202.1864,-86.929 200.1138,-76.5389 194.0868,-80.0991"/>
<text text-anchor="middle" x="184.2279" y="-69.9459" font-family="Times,serif" font-size="14.00" fill="#000000">:h</text>
</g>
<!-- NewC -->
<g id="node4" class="node">
<title>NewC</title>
<ellipse fill="none" stroke="#ffffff" cx="139.0251" cy="-134.7466" rx="27" ry="18"/>
</g>
<!-- NewX&#45;&gt;NewC -->
<g id="edge3" class="edge">
<title>NewX&#45;&gt;NewC</title>
<path fill="none" stroke="#ffffff" d="M108.5991,-83.1884C113.1311,-90.8681 118.5936,-100.1245 123.632,-108.6623"/>
<polygon fill="#ffffff" stroke="#ffffff" points="120.772,-110.7027 128.8687,-117.5361 126.8006,-107.145 120.772,-110.7027"/>
</g>
<!-- XL&#45;&gt;NewC -->
<g id="edge4" class="edge">
<title>XL&#45;&gt;NewC</title>
<path fill="none" stroke="#ffffff" d="M186.8176,-115.0326C181.9742,-117.0305 176.8487,-119.1447 171.8229,-121.2178"/>
<polygon fill="#ffffff" stroke="#ffffff" points="170.2913,-118.0634 162.3816,-125.1122 172.9606,-124.5345 170.2913,-118.0634"/>
</g>
<!-- RN -->
<g id="node5" class="node">
<title>RN</title>
<ellipse fill="none" stroke="#000000" cx="261" cy="-28.639" rx="27" ry="18"/>
<text text-anchor="middle" x="261" y="-24.439" font-family="Times,serif" font-size="14.00" fill="#000000">RN</text>
</g>
<!-- NewS -->
<g id="node6" class="node">
<title>NewS</title>
<ellipse fill="none" stroke="#ffffff" cx="27" cy="-43.788" rx="27" ry="18"/>
</g>
<!-- NewS&#45;&gt;NewX -->
<g id="edge5" class="edge">
<title>NewS&#45;&gt;NewX</title>
<path fill="none" stroke="#ffffff" d="M51.6436,-51.5212C55.7398,-52.8066 60.0526,-54.1599 64.3361,-55.5041"/>
<polygon fill="#ffffff" stroke="#ffffff" points="63.5728,-58.9328 74.1621,-58.5875 65.6687,-52.254 63.5728,-58.9328"/>
</g>
<!-- XR -->
<g id="node7" class="node">
<title>XR</title>
<ellipse fill="none" stroke="#000000" cx="306.5078" cy="-266.1432" rx="31.9205" ry="18"/>
<text text-anchor="middle" x="306.5078" y="-261.9432" font-family="Times,serif" font-size="14.00" fill="#000000">XR:x</text>
</g>
<!-- C -->
<g id="node8" class="node">
<title>C</title>
<ellipse fill="none" stroke="#000000" cx="350.23" cy="-323.6793" rx="44.0795" ry="18"/>
<text text-anchor="middle" x="350.23" y="-319.4793" font-family="Times,serif" font-size="14.00" fill="#000000">C:cursor</text>
</g>
<!-- XR&#45;&gt;C -->
<g id="edge6" class="edge">
<title>XR&#45;&gt;C</title>
<path fill="none" stroke="#000000" d="M319.1541,-282.7851C322.8615,-287.6638 327.0017,-293.1121 331.0205,-298.4007"/>
<polygon fill="#000000" stroke="#000000" points="328.3192,-300.6307 337.1563,-306.4751 333.8926,-296.3954 328.3192,-300.6307"/>
<text text-anchor="middle" x="330.5326" y="-294.7929" font-family="Times,serif" font-size="14.00" fill="#000000">:h</text>
</g>
<!-- ER -->
<g id="node9" class="node">
<title>ER</title>
<ellipse fill="none" stroke="#000000" cx="282.3465" cy="-198" rx="30.1938" ry="18"/>
<text text-anchor="middle" x="282.3465" y="-193.8" font-family="Times,serif" font-size="14.00" fill="#000000">ER:e</text>
</g>
<!-- ER&#45;&gt;XR -->
<g id="edge7" class="edge">
<title>ER&#45;&gt;XR</title>
<path fill="none" stroke="#000000" d="M288.6946,-215.9038C291.1445,-222.8132 294.0038,-230.8774 296.7053,-238.4968"/>
<polygon fill="#000000" stroke="#000000" points="293.4776,-239.8669 300.1182,-248.1224 300.0751,-237.5276 293.4776,-239.8669"/>
<text text-anchor="middle" x="287.2547" y="-231.4003" font-family="Times,serif" font-size="14.00" fill="#000000">:v</text>
</g>
<!-- EL -->
<g id="node10" class="node">
<title>EL</title>
<ellipse fill="none" stroke="#000000" cx="283.2715" cy="-129.4708" rx="29.6127" ry="18"/>
<text text-anchor="middle" x="283.2715" y="-125.2708" font-family="Times,serif" font-size="14.00" fill="#000000">EL:e</text>
</g>
<!-- EL&#45;&gt;XL -->
<g id="edge8" class="edge">
<title>EL&#45;&gt;XL</title>
<path fill="none" stroke="#000000" d="M257.3294,-120.2884C254.5935,-119.32 251.7765,-118.3229 248.9504,-117.3226"/>
<polygon fill="#000000" stroke="#000000" points="250.0072,-113.9839 239.4124,-113.9465 247.6714,-120.5827 250.0072,-113.9839"/>
<text text-anchor="middle" x="247.6946" y="-123.0055" font-family="Times,serif" font-size="14.00" fill="#000000">:v</text>
</g>
<!-- R -->
<g id="node11" class="node">
<title>R</title>
<ellipse fill="none" stroke="#ff0000" cx="332.2095" cy="-18" rx="35.3509" ry="18"/>
<text text-anchor="middle" x="332.2095" y="-13.8" font-family="Times,serif" font-size="14.00" fill="#ff0000">R:row</text>
</g>
<!-- R&#45;&gt;RN -->
<g id="edge9" class="edge">
<title>R&#45;&gt;RN</title>
<path fill="none" stroke="#ff0000" d="M298.2732,-23.0702C298.0493,-23.1037 297.8253,-23.1371 297.6013,-23.1706"/>
<polygon fill="#ff0000" stroke="#ff0000" points="296.9774,-19.7249 287.6044,-24.6642 298.0118,-26.648 296.9774,-19.7249"/>
</g>
</g>
</svg>
