<?xml version="1.0" encoding="UTF-8" standalone="no"?>
<!DOCTYPE svg PUBLIC "-//W3C//DTD SVG 1.1//EN"
 "http://www.w3.org/Graphics/SVG/1.1/DTD/svg11.dtd">
<!-- Generated by graphviz version 2.40.1 (20161225.0304)
 -->
<!-- Pages: 1 -->
<svg width="460pt" height="634pt"
 viewBox="0.00 0.00 459.71 633.72" xmlns="http://www.w3.org/2000/svg" xmlns:xlink="http://www.w3.org/1999/xlink">
<g id="graph0" class="graph" transform="scale(1 1) rotate(0) translate(4 629.718)">
<polygon fill="#ffffff" stroke="transparent" points="-4,4 -4,-629.718 455.7065,-629.718 455.7065,4 -4,4"/>
<!-- 0 -->
<g id="node1" class="node">
<title>0</title>
<ellipse fill="none" stroke="#000000" cx="29.2669" cy="-607.718" rx="29.0356" ry="18"/>
<text text-anchor="middle" x="29.2669" y="-603.518" font-family="Times,serif" font-size="14.00" fill="#000000">head</text>
</g>
<!-- 1 -->
<g id="node2" class="node">
<title>1</title>
<ellipse fill="none" stroke="#000000" cx="86.1552" cy="-563.175" rx="27" ry="18"/>
<text text-anchor="middle" x="86.1552" y="-558.975" font-family="Times,serif" font-size="14.00" fill="#000000">1</text>
</g>
<!-- 0&#45;&#45;1 -->
<g id="edge1" class="edge">
<title>0&#45;&#45;1</title>
<path fill="none" stroke="#000000" d="M47.5798,-593.3791C54.2059,-588.1909 61.6758,-582.3421 68.2651,-577.1827"/>
</g>
<!-- 2 -->
<g id="node3" class="node">
<title>2</title>
<ellipse fill="none" stroke="#000000" cx="137.8951" cy="-512.7639" rx="27" ry="18"/>
<text text-anchor="middle" x="137.8951" y="-508.5639" font-family="Times,serif" font-size="14.00" fill="#000000">2</text>
</g>
<!-- 1&#45;&#45;2 -->
<g id="edge2" class="edge">
<title>1&#45;&#45;2</title>
<path fill="none" stroke="#000000" d="M101.6789,-548.05C108.2274,-541.6696 115.835,-534.2574 122.3824,-527.8782"/>
</g>
<!-- 3 -->
<g id="node4" class="node">
<title>3</title>
<ellipse fill="none" stroke="#000000" cx="188.5497" cy="-461.1434" rx="27" ry="18"/>
<text text-anchor="middle" x="188.5497" y="-456.9434" font-family="Times,serif" font-size="14.00" fill="#000000">3</text>
</g>
<!-- 2&#45;&#45;3 -->
<g id="edge3" class="edge">
<title>2&#45;&#45;3</title>
<path fill="none" stroke="#000000" d="M152.8192,-497.5552C159.3563,-490.8935 167.0124,-483.0914 173.5573,-476.4217"/>
</g>
<!-- 4 -->
<g id="node5" class="node">
<title>4</title>
<ellipse fill="none" stroke="#000000" cx="234.0621" cy="-404.9129" rx="27" ry="18"/>
<text text-anchor="middle" x="234.0621" y="-400.7129" font-family="Times,serif" font-size="14.00" fill="#000000">4</text>
</g>
<!-- 3&#45;&#45;4 -->
<g id="edge4" class="edge">
<title>3&#45;&#45;4</title>
<path fill="none" stroke="#000000" d="M201.47,-445.1804C207.567,-437.6476 214.8305,-428.6736 220.9514,-421.1111"/>
</g>
<!-- 5 -->
<g id="node6" class="node">
<title>5</title>
<ellipse fill="none" stroke="#000000" cx="273.7231" cy="-344.4527" rx="27" ry="18"/>
<text text-anchor="middle" x="273.7231" y="-340.2527" font-family="Times,serif" font-size="14.00" fill="#000000">5</text>
</g>
<!-- 4&#45;&#45;5 -->
<g id="edge5" class="edge">
<title>4&#45;&#45;5</title>
<path fill="none" stroke="#000000" d="M244.8996,-388.3919C250.4958,-379.8609 257.3043,-369.4819 262.8987,-360.9537"/>
</g>
<!-- 6 -->
<g id="node7" class="node">
<title>6</title>
<ellipse fill="none" stroke="#000000" cx="309.1059" cy="-281.4549" rx="27" ry="18"/>
<text text-anchor="middle" x="309.1059" y="-277.2549" font-family="Times,serif" font-size="14.00" fill="#000000">6</text>
</g>
<!-- 5&#45;&#45;6 -->
<g id="edge6" class="edge">
<title>5&#45;&#45;6</title>
<path fill="none" stroke="#000000" d="M283.205,-327.5704C288.2817,-318.5317 294.5171,-307.4296 299.5978,-298.3838"/>
</g>
<!-- 7 -->
<g id="node8" class="node">
<title>7</title>
<ellipse fill="none" stroke="#000000" cx="346.3239" cy="-219.539" rx="27" ry="18"/>
<text text-anchor="middle" x="346.3239" y="-215.339" font-family="Times,serif" font-size="14.00" fill="#000000">7</text>
</g>
<!-- 6&#45;&#45;7 -->
<g id="edge7" class="edge">
<title>6&#45;&#45;7</title>
<path fill="none" stroke="#000000" d="M319.2759,-264.5361C324.5274,-255.7997 330.9165,-245.1708 336.1662,-236.4373"/>
</g>
<!-- 8 -->
<g id="node9" class="node">
<title>8</title>
<ellipse fill="none" stroke="#000000" cx="376.3671" cy="-153.8363" rx="27" ry="18"/>
<text text-anchor="middle" x="376.3671" y="-149.6363" font-family="Times,serif" font-size="14.00" fill="#000000">8</text>
</g>
<!-- 7&#45;&#45;8 -->
<g id="edge8" class="edge">
<title>7&#45;&#45;8</title>
<path fill="none" stroke="#000000" d="M354.2174,-202.2764C358.5985,-192.6952 364.0327,-180.8109 368.422,-171.2117"/>
</g>
<!-- 9 -->
<g id="node10" class="node">
<title>9</title>
<ellipse fill="none" stroke="#000000" cx="404.8106" cy="-87.4553" rx="27" ry="18"/>
<text text-anchor="middle" x="404.8106" y="-83.2553" font-family="Times,serif" font-size="14.00" fill="#000000">9</text>
</g>
<!-- 8&#45;&#45;9 -->
<g id="edge9" class="edge">
<title>8&#45;&#45;9</title>
<path fill="none" stroke="#000000" d="M383.8403,-136.3955C387.9881,-126.7154 393.133,-114.7084 397.2886,-105.0101"/>
</g>
<!-- 10 -->
<g id="node11" class="node">
<title>10</title>
<ellipse fill="none" stroke="#000000" cx="424.7065" cy="-18" rx="27" ry="18"/>
<text text-anchor="middle" x="424.7065" y="-13.8" font-family="Times,serif" font-size="14.00" fill="#000000">tail</text>
</g>
<!-- 9&#45;&#45;10 -->
<g id="edge10" class="edge">
<title>9&#45;&#45;10</title>
<path fill="none" stroke="#000000" d="M409.9343,-69.5688C412.8818,-59.2793 416.5748,-46.3871 419.531,-36.0672"/>
</g>
</g>
</svg>
