<?xml version="1.0" encoding="UTF-8" standalone="no"?>
<!DOCTYPE svg PUBLIC "-//W3C//DTD SVG 1.1//EN"
 "http://www.w3.org/Graphics/SVG/1.1/DTD/svg11.dtd">
<!-- Generated by graphviz version 2.40.1 (20161225.0304)
 -->
<!-- Pages: 1 -->
<svg width="567pt" height="491pt"
 viewBox="0.00 0.00 567.25 490.65" xmlns="http://www.w3.org/2000/svg" xmlns:xlink="http://www.w3.org/1999/xlink">
<g id="graph0" class="graph" transform="scale(1 1) rotate(0) translate(4 486.6453)">
<polygon fill="#ffffff" stroke="transparent" points="-4,4 -4,-486.6453 563.2456,-486.6453 563.2456,4 -4,4"/>
<!-- 3&#45;&#45;6 -->
<g id="edge1" class="edge">
<title>3&#45;&#45;6</title>
<path fill="none" stroke="#000000" d="M254.0238,-96.391C258.1594,-106.0221 263.2892,-117.9682 267.4326,-127.6173"/>
</g>
<!-- 3&#45;&#45;13 -->
<g id="edge2" class="edge">
<title>3&#45;&#45;13</title>
<path fill="none" stroke="#000000" d="M239.6424,-61.3837C236.4913,-53.356 232.7696,-43.8749 229.6105,-35.8267"/>
</g>
<!-- 6&#45;&#45;14 -->
<g id="edge3" class="edge">
<title>6&#45;&#45;14</title>
<path fill="none" stroke="#000000" d="M259.512,-159.9603C253.5974,-165.6665 246.8482,-172.1779 240.9186,-177.8985"/>
</g>
<!-- 6&#45;&#45;15 -->
<g id="edge4" class="edge">
<title>6&#45;&#45;15</title>
<path fill="none" stroke="#000000" d="M301.7977,-142.17C306.5476,-141.655 311.4919,-141.1188 316.2365,-140.6043"/>
</g>
<!-- 14&#45;&#45;18 -->
<g id="edge5" class="edge">
<title>14&#45;&#45;18</title>
<path fill="none" stroke="#000000" d="M216.438,-209.9815C212.2387,-218.0275 207.2359,-227.6127 203.0201,-235.6903"/>
</g>
<!-- 14&#45;&#45;19 -->
<g id="edge6" class="edge">
<title>14&#45;&#45;19</title>
<path fill="none" stroke="#000000" d="M208.061,-178.7615C201.9328,-173.735 195.0394,-168.0811 188.9139,-163.0568"/>
</g>
<!-- 15&#45;&#45;16 -->
<g id="edge7" class="edge">
<title>15&#45;&#45;16</title>
<path fill="none" stroke="#000000" d="M369.8363,-140.3484C373.6296,-140.7197 377.529,-141.1014 381.3211,-141.4726"/>
</g>
<!-- 15&#45;&#45;17 -->
<g id="edge8" class="edge">
<title>15&#45;&#45;17</title>
<path fill="none" stroke="#000000" d="M344.8964,-119.6307C345.9239,-110.2938 347.174,-98.9344 348.2012,-89.6007"/>
</g>
<!-- 18&#45;&#45;24 -->
<g id="edge11" class="edge">
<title>18&#45;&#45;24</title>
<path fill="none" stroke="#000000" d="M172.2966,-264.1086C166.2878,-267.1878 159.7646,-270.5306 153.7506,-273.6125"/>
</g>
<!-- 18&#45;&#45;25 -->
<g id="edge12" class="edge">
<title>18&#45;&#45;25</title>
<path fill="none" stroke="#000000" d="M206.8089,-268.8494C211.538,-274.6996 216.8952,-281.3269 221.6293,-287.1832"/>
</g>
<!-- 16&#45;&#45;20 -->
<g id="edge9" class="edge">
<title>16&#45;&#45;20</title>
<path fill="none" stroke="#000000" d="M429.1965,-155.573C435.6657,-159.1053 442.7858,-162.9931 449.2536,-166.5246"/>
</g>
<!-- 16&#45;&#45;21 -->
<g id="edge10" class="edge">
<title>16&#45;&#45;21</title>
<path fill="none" stroke="#000000" d="M418.29,-127.0856C422.9635,-119.2123 428.498,-109.8884 433.1537,-102.0452"/>
</g>
<!-- 20&#45;&#45;22 -->
<g id="edge13" class="edge">
<title>20&#45;&#45;22</title>
<path fill="none" stroke="#000000" d="M493.3282,-168.4272C498.4241,-166.318 503.8258,-164.0824 508.9307,-161.9695"/>
</g>
<!-- 20&#45;&#45;23 -->
<g id="edge14" class="edge">
<title>20&#45;&#45;23</title>
<path fill="none" stroke="#000000" d="M480.6828,-194.643C484.6885,-201.0328 489.2593,-208.3244 493.2751,-214.7305"/>
</g>
<!-- 24&#45;&#45;26 -->
<g id="edge15" class="edge">
<title>24&#45;&#45;26</title>
<path fill="none" stroke="#000000" d="M121.0677,-301.3803C116.4711,-308.3844 111.1311,-316.5211 106.5352,-323.5239"/>
</g>
<!-- 24&#45;&#45;27 -->
<g id="edge16" class="edge">
<title>24&#45;&#45;27</title>
<path fill="none" stroke="#000000" d="M113.6888,-271.3297C106.2662,-265.8682 97.7109,-259.5733 90.2997,-254.1202"/>
</g>
<!-- 26&#45;&#45;28 -->
<g id="edge17" class="edge">
<title>26&#45;&#45;28</title>
<path fill="none" stroke="#000000" d="M95.1547,-358.1198C94.9141,-366.935 94.6248,-377.5307 94.3828,-386.3927"/>
</g>
<!-- 26&#45;&#45;29 -->
<g id="edge18" class="edge">
<title>26&#45;&#45;29</title>
<path fill="none" stroke="#000000" d="M69.3022,-335.6907C64.16,-334.827 58.765,-333.9208 53.6141,-333.0556"/>
</g>
<!-- 28&#45;&#45;30 -->
<g id="edge19" class="edge">
<title>28&#45;&#45;30</title>
<path fill="none" stroke="#000000" d="M74.5883,-417.5541C67.1883,-422.4654 58.744,-428.0698 51.3252,-432.9936"/>
</g>
<!-- 28&#45;&#45;31 -->
<g id="edge20" class="edge">
<title>28&#45;&#45;31</title>
<path fill="none" stroke="#000000" d="M101.2195,-422.0737C104.556,-429.9511 108.4967,-439.2548 111.8417,-447.1523"/>
</g>
<!-- 3 -->
<g id="node1" class="node">
<title>3</title>
<ellipse fill="none" stroke="#000000" cx="246.5725" cy="-79.0386" rx="27" ry="18"/>
<text text-anchor="middle" x="246.5725" y="-74.8386" font-family="Times,serif" font-size="14.00" fill="#000000">root</text>
</g>
<!-- 6 -->
<g id="node2" class="node">
<title>6</title>
<ellipse fill="none" stroke="#000000" cx="274.9325" cy="-145.0832" rx="27" ry="18"/>
</g>
<!-- 13 -->
<g id="node3" class="node">
<title>13</title>
<ellipse fill="none" stroke="#000000" cx="222.6129" cy="-18" rx="27" ry="18"/>
<text text-anchor="middle" x="222.6129" y="-13.8" font-family="Times,serif" font-size="14.00" fill="#000000">leaf</text>
</g>
<!-- 14 -->
<g id="node4" class="node">
<title>14</title>
<ellipse fill="none" stroke="#000000" cx="225.3368" cy="-192.9313" rx="27" ry="18"/>
</g>
<!-- 15 -->
<g id="node5" class="node">
<title>15</title>
<ellipse fill="none" stroke="#000000" cx="342.9065" cy="-137.7124" rx="27" ry="18"/>
</g>
<!-- 18 -->
<g id="node6" class="node">
<title>18</title>
<ellipse fill="none" stroke="#000000" cx="193.9902" cy="-252.9917" rx="27" ry="18"/>
</g>
<!-- 19 -->
<g id="node7" class="node">
<title>19</title>
<ellipse fill="none" stroke="#000000" cx="171.6705" cy="-148.9136" rx="27" ry="18"/>
<text text-anchor="middle" x="171.6705" y="-144.7136" font-family="Times,serif" font-size="14.00" fill="#000000">leaf</text>
</g>
<!-- 16 -->
<g id="node8" class="node">
<title>16</title>
<ellipse fill="none" stroke="#000000" cx="408.1891" cy="-144.1025" rx="27" ry="18"/>
</g>
<!-- 17 -->
<g id="node9" class="node">
<title>17</title>
<ellipse fill="none" stroke="#000000" cx="350.1887" cy="-71.5409" rx="27" ry="18"/>
<text text-anchor="middle" x="350.1887" y="-67.3409" font-family="Times,serif" font-size="14.00" fill="#000000">leaf</text>
</g>
<!-- 20 -->
<g id="node10" class="node">
<title>20</title>
<ellipse fill="none" stroke="#000000" cx="470.2394" cy="-177.9832" rx="27" ry="18"/>
</g>
<!-- 21 -->
<g id="node11" class="node">
<title>21</title>
<ellipse fill="none" stroke="#000000" cx="443.1114" cy="-85.2697" rx="27" ry="18"/>
<text text-anchor="middle" x="443.1114" y="-81.0697" font-family="Times,serif" font-size="14.00" fill="#000000">leaf</text>
</g>
<!-- 24 -->
<g id="node12" class="node">
<title>24</title>
<ellipse fill="none" stroke="#000000" cx="131.9644" cy="-284.7768" rx="27" ry="18"/>
</g>
<!-- 25 -->
<g id="node13" class="node">
<title>25</title>
<ellipse fill="none" stroke="#000000" cx="234.5037" cy="-303.1097" rx="27" ry="18"/>
<text text-anchor="middle" x="234.5037" y="-298.9097" font-family="Times,serif" font-size="14.00" fill="#000000">leaf</text>
</g>
<!-- 22 -->
<g id="node14" class="node">
<title>22</title>
<ellipse fill="none" stroke="#000000" cx="532.2456" cy="-152.3199" rx="27" ry="18"/>
<text text-anchor="middle" x="532.2456" y="-148.1199" font-family="Times,serif" font-size="14.00" fill="#000000">leaf</text>
</g>
<!-- 23 -->
<g id="node15" class="node">
<title>23</title>
<ellipse fill="none" stroke="#000000" cx="503.8278" cy="-231.5644" rx="27" ry="18"/>
<text text-anchor="middle" x="503.8278" y="-227.3644" font-family="Times,serif" font-size="14.00" fill="#000000">leaf</text>
</g>
<!-- 26 -->
<g id="node16" class="node">
<title>26</title>
<ellipse fill="none" stroke="#000000" cx="95.6463" cy="-340.1157" rx="27" ry="18"/>
</g>
<!-- 27 -->
<g id="node17" class="node">
<title>27</title>
<ellipse fill="none" stroke="#000000" cx="72.1361" cy="-240.7555" rx="27" ry="18"/>
<text text-anchor="middle" x="72.1361" y="-236.5555" font-family="Times,serif" font-size="14.00" fill="#000000">leaf</text>
</g>
<!-- 28 -->
<g id="node18" class="node">
<title>28</title>
<ellipse fill="none" stroke="#000000" cx="93.8816" cy="-404.7493" rx="27" ry="18"/>
</g>
<!-- 29 -->
<g id="node19" class="node">
<title>29</title>
<ellipse fill="none" stroke="#000000" cx="27" cy="-328.5853" rx="27" ry="18"/>
<text text-anchor="middle" x="27" y="-324.3853" font-family="Times,serif" font-size="14.00" fill="#000000">leaf</text>
</g>
<!-- 30 -->
<g id="node20" class="node">
<title>30</title>
<ellipse fill="none" stroke="#000000" cx="31.8301" cy="-445.9324" rx="27" ry="18"/>
<text text-anchor="middle" x="31.8301" y="-441.7324" font-family="Times,serif" font-size="14.00" fill="#000000">leaf</text>
</g>
<!-- 31 -->
<g id="node21" class="node">
<title>31</title>
<ellipse fill="none" stroke="#000000" cx="119.251" cy="-464.6453" rx="27" ry="18"/>
<text text-anchor="middle" x="119.251" y="-460.4453" font-family="Times,serif" font-size="14.00" fill="#000000">leaf</text>
</g>
<!-- 32 -->
</g>
</svg>
