<?xml version="1.0" encoding="UTF-8" standalone="no"?>
<!DOCTYPE svg PUBLIC "-//W3C//DTD SVG 1.1//EN"
 "http://www.w3.org/Graphics/SVG/1.1/DTD/svg11.dtd">
<!-- Generated by graphviz version 2.40.1 (20161225.0304)
 -->
<!-- Pages: 1 -->
<svg width="538pt" height="458pt"
 viewBox="0.00 0.00 538.26 458.07" xmlns="http://www.w3.org/2000/svg" xmlns:xlink="http://www.w3.org/1999/xlink">
<g id="graph0" class="graph" transform="scale(1 1) rotate(0) translate(4 454.0747)">
<polygon fill="#ffffff" stroke="transparent" points="-4,4 -4,-454.0747 534.2562,-454.0747 534.2562,4 -4,4"/>
<!-- 0&#45;&#45;1 -->
<g id="edge1" class="edge">
<title>0&#45;&#45;1</title>
<path fill="none" stroke="#000000" d="M161.5174,-122.0027C157.3266,-112.0294 152.0757,-99.5336 147.8725,-89.5311"/>
</g>
<!-- 0&#45;&#45;14 -->
<g id="edge2" class="edge">
<title>0&#45;&#45;14</title>
<path fill="none" stroke="#000000" d="M141.5342,-140.6019C137.1,-140.8072 132.5066,-141.0199 128.0722,-141.2253"/>
</g>
<!-- 0&#45;&#45;15 -->
<g id="edge3" class="edge">
<title>0&#45;&#45;15</title>
<path fill="none" stroke="#000000" d="M184.4247,-154.0823C192.0737,-161.3009 201.2677,-169.9775 208.9573,-177.2344"/>
</g>
<!-- 1&#45;&#45;10 -->
<g id="edge4" class="edge">
<title>1&#45;&#45;10</title>
<path fill="none" stroke="#000000" d="M128.0522,-55.8117C122.7953,-48.9746 116.6883,-41.032 111.4323,-34.1961"/>
</g>
<!-- 15&#45;&#45;16 -->
<g id="edge5" class="edge">
<title>15&#45;&#45;16</title>
<path fill="none" stroke="#000000" d="M249.6097,-184.3267C257.7094,-181.7258 266.6989,-178.839 274.7719,-176.2467"/>
</g>
<!-- 15&#45;&#45;17 -->
<g id="edge6" class="edge">
<title>15&#45;&#45;17</title>
<path fill="none" stroke="#000000" d="M218.8687,-210.1596C215.0959,-221.38 210.2523,-235.7846 206.4926,-246.9657"/>
</g>
<!-- 16&#45;&#45;18 -->
<g id="edge7" class="edge">
<title>16&#45;&#45;18</title>
<path fill="none" stroke="#000000" d="M325.8439,-164.7804C333.3276,-163.7598 341.4596,-162.6507 348.935,-161.6312"/>
</g>
<!-- 16&#45;&#45;19 -->
<g id="edge8" class="edge">
<title>16&#45;&#45;19</title>
<path fill="none" stroke="#000000" d="M296.3408,-150.4452C294.8977,-141.1619 293.142,-129.8676 291.6993,-120.5875"/>
</g>
<!-- 17&#45;&#45;20 -->
<g id="edge9" class="edge">
<title>17&#45;&#45;20</title>
<path fill="none" stroke="#000000" d="M189.0524,-281.0079C182.8992,-289.7641 175.3414,-300.5192 169.1834,-309.2823"/>
</g>
<!-- 17&#45;&#45;21 -->
<g id="edge10" class="edge">
<title>17&#45;&#45;21</title>
<path fill="none" stroke="#000000" d="M216.1238,-279.4016C221.8712,-284.8426 228.3818,-291.0062 234.1352,-296.4528"/>
</g>
<!-- 18&#45;&#45;22 -->
<g id="edge11" class="edge">
<title>18&#45;&#45;22</title>
<path fill="none" stroke="#000000" d="M384.3627,-140.9587C389.6467,-130.7945 396.3362,-117.9267 401.6412,-107.7222"/>
</g>
<!-- 18&#45;&#45;23 -->
<g id="edge12" class="edge">
<title>18&#45;&#45;23</title>
<path fill="none" stroke="#000000" d="M392.718,-172.1874C399.9816,-178.1688 408.4199,-185.1174 415.6822,-191.0978"/>
</g>
<!-- 20&#45;&#45;24 -->
<g id="edge13" class="edge">
<title>20&#45;&#45;24</title>
<path fill="none" stroke="#000000" d="M166.4486,-342.9015C171.3271,-352.4588 177.3782,-364.3133 182.2659,-373.8885"/>
</g>
<!-- 20&#45;&#45;25 -->
<g id="edge14" class="edge">
<title>20&#45;&#45;25</title>
<path fill="none" stroke="#000000" d="M137.0118,-337.671C130.3886,-341.5169 123.053,-345.7763 116.4211,-349.6272"/>
</g>
<!-- 22&#45;&#45;30 -->
<g id="edge15" class="edge">
<title>22&#45;&#45;30</title>
<path fill="none" stroke="#000000" d="M411.0912,-72.134C411.3642,-61.4368 411.7073,-47.9915 411.9789,-37.3476"/>
</g>
<!-- 22&#45;&#45;31 -->
<g id="edge16" class="edge">
<title>22&#45;&#45;31</title>
<path fill="none" stroke="#000000" d="M434.6761,-81.6972C440.38,-79.6231 446.4645,-77.4106 452.1682,-75.3366"/>
</g>
<!-- 23&#45;&#45;28 -->
<g id="edge17" class="edge">
<title>23&#45;&#45;28</title>
<path fill="none" stroke="#000000" d="M459.8934,-203.6986C465.1645,-203.3925 470.6948,-203.0713 475.9748,-202.7647"/>
</g>
<!-- 23&#45;&#45;29 -->
<g id="edge18" class="edge">
<title>23&#45;&#45;29</title>
<path fill="none" stroke="#000000" d="M441.7609,-222.5982C446.1785,-231.2278 451.5035,-241.63 455.9146,-250.2468"/>
</g>
<!-- 25&#45;&#45;26 -->
<g id="edge19" class="edge">
<title>25&#45;&#45;26</title>
<path fill="none" stroke="#000000" d="M92.8703,-379.8133C91.2696,-390.241 89.2641,-403.3063 87.6587,-413.7648"/>
</g>
<!-- 25&#45;&#45;27 -->
<g id="edge20" class="edge">
<title>25&#45;&#45;27</title>
<path fill="none" stroke="#000000" d="M68.5194,-361.0713C63.8719,-360.9659 59.0402,-360.8563 54.3862,-360.7508"/>
</g>
<!-- 0 -->
<g id="node1" class="node">
<title>0</title>
<ellipse fill="none" stroke="#000000" cx="168.8024" cy="-139.3392" rx="27" ry="18"/>
</g>
<!-- 1 -->
<g id="node2" class="node">
<title>1</title>
<ellipse fill="none" stroke="#000000" cx="140.5139" cy="-72.0193" rx="27" ry="18"/>
<text text-anchor="middle" x="140.5139" y="-67.8193" font-family="Times,serif" font-size="14.00" fill="#000000">root</text>
</g>
<!-- 14 -->
<g id="node3" class="node">
<title>14</title>
<ellipse fill="none" stroke="#000000" cx="100.7979" cy="-142.4882" rx="27" ry="18"/>
<text text-anchor="middle" x="100.7979" y="-138.2882" font-family="Times,serif" font-size="14.00" fill="#000000">leaf</text>
</g>
<!-- 15 -->
<g id="node4" class="node">
<title>15</title>
<ellipse fill="none" stroke="#000000" cx="224.8854" cy="-192.2661" rx="27" ry="18"/>
</g>
<!-- 10 -->
<g id="node5" class="node">
<title>10</title>
<ellipse fill="none" stroke="#000000" cx="98.9794" cy="-18" rx="27" ry="18"/>
<text text-anchor="middle" x="98.9794" y="-13.8" font-family="Times,serif" font-size="14.00" fill="#000000">leaf</text>
</g>
<!-- 16 -->
<g id="node6" class="node">
<title>16</title>
<ellipse fill="none" stroke="#000000" cx="299.1355" cy="-168.4231" rx="27" ry="18"/>
</g>
<!-- 17 -->
<g id="node7" class="node">
<title>17</title>
<ellipse fill="none" stroke="#000000" cx="200.5451" cy="-264.6533" rx="27" ry="18"/>
</g>
<!-- 18 -->
<g id="node8" class="node">
<title>18</title>
<ellipse fill="none" stroke="#000000" cx="375.4993" cy="-158.0082" rx="27" ry="18"/>
</g>
<!-- 19 -->
<g id="node9" class="node">
<title>19</title>
<ellipse fill="none" stroke="#000000" cx="288.908" cy="-102.6314" rx="27" ry="18"/>
<text text-anchor="middle" x="288.908" y="-98.4314" font-family="Times,serif" font-size="14.00" fill="#000000">leaf</text>
</g>
<!-- 20 -->
<g id="node10" class="node">
<title>20</title>
<ellipse fill="none" stroke="#000000" cx="157.6589" cy="-325.682" rx="27" ry="18"/>
</g>
<!-- 21 -->
<g id="node11" class="node">
<title>21</title>
<ellipse fill="none" stroke="#000000" cx="249.7815" cy="-311.2651" rx="27" ry="18"/>
<text text-anchor="middle" x="249.7815" y="-307.0651" font-family="Times,serif" font-size="14.00" fill="#000000">leaf</text>
</g>
<!-- 22 -->
<g id="node12" class="node">
<title>22</title>
<ellipse fill="none" stroke="#000000" cx="410.624" cy="-90.4431" rx="27" ry="18"/>
</g>
<!-- 23 -->
<g id="node13" class="node">
<title>23</title>
<ellipse fill="none" stroke="#000000" cx="432.8888" cy="-205.2669" rx="27" ry="18"/>
</g>
<!-- 24 -->
<g id="node14" class="node">
<title>24</title>
<ellipse fill="none" stroke="#000000" cx="191.113" cy="-391.2205" rx="27" ry="18"/>
<text text-anchor="middle" x="191.113" y="-387.0205" font-family="Times,serif" font-size="14.00" fill="#000000">leaf</text>
</g>
<!-- 25 -->
<g id="node15" class="node">
<title>25</title>
<ellipse fill="none" stroke="#000000" cx="95.6527" cy="-361.6866" rx="27" ry="18"/>
</g>
<!-- 30 -->
<g id="node16" class="node">
<title>30</title>
<ellipse fill="none" stroke="#000000" cx="412.4383" cy="-19.3467" rx="27" ry="18"/>
<text text-anchor="middle" x="412.4383" y="-15.1467" font-family="Times,serif" font-size="14.00" fill="#000000">leaf</text>
</g>
<!-- 31 -->
<g id="node17" class="node">
<title>31</title>
<ellipse fill="none" stroke="#000000" cx="476.2175" cy="-66.5916" rx="27" ry="18"/>
<text text-anchor="middle" x="476.2175" y="-62.3916" font-family="Times,serif" font-size="14.00" fill="#000000">leaf</text>
</g>
<!-- 28 -->
<g id="node18" class="node">
<title>28</title>
<ellipse fill="none" stroke="#000000" cx="503.2562" cy="-201.1803" rx="27" ry="18"/>
<text text-anchor="middle" x="503.2562" y="-196.9803" font-family="Times,serif" font-size="14.00" fill="#000000">leaf</text>
</g>
<!-- 29 -->
<g id="node19" class="node">
<title>29</title>
<ellipse fill="none" stroke="#000000" cx="464.7391" cy="-267.4851" rx="27" ry="18"/>
<text text-anchor="middle" x="464.7391" y="-263.2851" font-family="Times,serif" font-size="14.00" fill="#000000">leaf</text>
</g>
<!-- 26 -->
<g id="node20" class="node">
<title>26</title>
<ellipse fill="none" stroke="#000000" cx="84.8482" cy="-432.0747" rx="27" ry="18"/>
<text text-anchor="middle" x="84.8482" y="-427.8747" font-family="Times,serif" font-size="14.00" fill="#000000">leaf</text>
</g>
<!-- 27 -->
<g id="node21" class="node">
<title>27</title>
<ellipse fill="none" stroke="#000000" cx="27" cy="-360.1297" rx="27" ry="18"/>
<text text-anchor="middle" x="27" y="-355.9297" font-family="Times,serif" font-size="14.00" fill="#000000">leaf</text>
</g>
<!-- 32 -->
</g>
</svg>
