<?xml version="1.0" encoding="UTF-8" standalone="no"?>
<!DOCTYPE svg PUBLIC "-//W3C//DTD SVG 1.1//EN"
 "http://www.w3.org/Graphics/SVG/1.1/DTD/svg11.dtd">
<!-- Generated by graphviz version 2.40.1 (20161225.0304)
 -->
<!-- Pages: 1 -->
<svg width="451pt" height="646pt"
 viewBox="0.00 0.00 451.00 645.93" xmlns="http://www.w3.org/2000/svg" xmlns:xlink="http://www.w3.org/1999/xlink">
<g id="graph0" class="graph" transform="scale(1 1) rotate(0) translate(4 641.9278)">
<polygon fill="#ffffff" stroke="transparent" points="-4,4 -4,-641.9278 447.0039,-641.9278 447.0039,4 -4,4"/>
<!-- 5&#45;&#45;13 -->
<g id="edge1" class="edge">
<title>5&#45;&#45;13</title>
<path fill="none" stroke="#000000" d="M157.0844,-267.5641C155.0936,-256.0162 152.5137,-241.0522 150.5197,-229.4863"/>
</g>
<!-- 5&#45;&#45;16 -->
<g id="edge2" class="edge">
<title>5&#45;&#45;16</title>
<path fill="none" stroke="#000000" d="M169.4914,-302.4605C175.2478,-312.9522 182.6135,-326.377 188.3984,-336.9206"/>
</g>
<!-- 5&#45;&#45;17 -->
<g id="edge3" class="edge">
<title>5&#45;&#45;17</title>
<path fill="none" stroke="#000000" d="M133.2184,-287.483C127.9572,-287.8748 122.4372,-288.2859 117.1671,-288.6784"/>
</g>
<!-- 16&#45;&#45;18 -->
<g id="edge9" class="edge">
<title>16&#45;&#45;18</title>
<path fill="none" stroke="#000000" d="M188.0993,-371.0953C181.8452,-381.9153 173.7548,-395.9125 167.464,-406.7963"/>
</g>
<!-- 16&#45;&#45;19 -->
<g id="edge10" class="edge">
<title>16&#45;&#45;19</title>
<path fill="none" stroke="#000000" d="M225.2803,-354.6494C233.3794,-354.7859 242.2397,-354.9352 250.325,-355.0715"/>
</g>
<!-- 8&#45;&#45;13 -->
<g id="edge4" class="edge">
<title>8&#45;&#45;13</title>
<path fill="none" stroke="#000000" d="M122.6814,-162.6702C127.5738,-172.3252 133.6422,-184.301 138.5437,-193.9741"/>
</g>
<!-- 8&#45;&#45;14 -->
<g id="edge5" class="edge">
<title>8&#45;&#45;14</title>
<path fill="none" stroke="#000000" d="M87.0071,-142.0192C80.181,-141.1918 72.8504,-140.3033 66.0387,-139.4778"/>
</g>
<!-- 8&#45;&#45;15 -->
<g id="edge6" class="edge">
<title>8&#45;&#45;15</title>
<path fill="none" stroke="#000000" d="M117.9122,-127.4566C120.4299,-116.3669 123.6569,-102.1536 126.1766,-91.0556"/>
</g>
<!-- 15&#45;&#45;20 -->
<g id="edge7" class="edge">
<title>15&#45;&#45;20</title>
<path fill="none" stroke="#000000" d="M145.1551,-57.9075C151.4502,-51.4595 158.7633,-43.9688 165.0573,-37.522"/>
</g>
<!-- 15&#45;&#45;21 -->
<g id="edge8" class="edge">
<title>15&#45;&#45;21</title>
<path fill="none" stroke="#000000" d="M116.8242,-57.5243C110.4971,-50.1305 102.9594,-41.3221 96.6074,-33.8992"/>
</g>
<!-- 18&#45;&#45;26 -->
<g id="edge11" class="edge">
<title>18&#45;&#45;26</title>
<path fill="none" stroke="#000000" d="M142.1965,-438.8657C134.4234,-446.399 124.994,-455.5375 117.1691,-463.121"/>
</g>
<!-- 18&#45;&#45;27 -->
<g id="edge12" class="edge">
<title>18&#45;&#45;27</title>
<path fill="none" stroke="#000000" d="M170.7853,-439.798C176.6042,-446.7032 183.4193,-454.7905 189.2451,-461.7038"/>
</g>
<!-- 19&#45;&#45;22 -->
<g id="edge13" class="edge">
<title>19&#45;&#45;22</title>
<path fill="none" stroke="#000000" d="M287.4215,-372.6464C292.3547,-381.1692 298.3013,-391.4426 303.2272,-399.9528"/>
</g>
<!-- 19&#45;&#45;23 -->
<g id="edge14" class="edge">
<title>19&#45;&#45;23</title>
<path fill="none" stroke="#000000" d="M303.0393,-349.4128C310.4982,-347.6253 318.6504,-345.6717 326.1122,-343.8836"/>
</g>
<!-- 26&#45;&#45;28 -->
<g id="edge17" class="edge">
<title>26&#45;&#45;28</title>
<path fill="none" stroke="#000000" d="M98.4706,-496.5132C96.5073,-508.3341 93.9589,-523.6779 92.0012,-535.4654"/>
</g>
<!-- 26&#45;&#45;29 -->
<g id="edge18" class="edge">
<title>26&#45;&#45;29</title>
<path fill="none" stroke="#000000" d="M74.8154,-474.1193C68.7681,-473.1687 62.3483,-472.1595 56.31,-471.2103"/>
</g>
<!-- 23&#45;&#45;24 -->
<g id="edge15" class="edge">
<title>23&#45;&#45;24</title>
<path fill="none" stroke="#000000" d="M372.0356,-349.9561C379.5436,-354.4573 388.0487,-359.5563 395.5645,-364.0621"/>
</g>
<!-- 23&#45;&#45;25 -->
<g id="edge16" class="edge">
<title>23&#45;&#45;25</title>
<path fill="none" stroke="#000000" d="M367.1358,-322.8271C373.4113,-316.7639 380.6445,-309.7755 386.9103,-303.7217"/>
</g>
<!-- 28&#45;&#45;30 -->
<g id="edge19" class="edge">
<title>28&#45;&#45;30</title>
<path fill="none" stroke="#000000" d="M69.0457,-565.6321C62.1067,-569.8504 54.3188,-574.5847 47.3488,-578.8219"/>
</g>
<!-- 28&#45;&#45;31 -->
<g id="edge20" class="edge">
<title>28&#45;&#45;31</title>
<path fill="none" stroke="#000000" d="M96.5277,-570.9516C100.7024,-580.6389 105.8805,-592.6546 110.063,-602.3601"/>
</g>
<!-- 5 -->
<g id="node1" class="node">
<title>5</title>
<ellipse fill="none" stroke="#000000" cx="160.1724" cy="-285.4755" rx="27" ry="18"/>
</g>
<!-- 13 -->
<g id="node2" class="node">
<title>13</title>
<ellipse fill="none" stroke="#000000" cx="147.416" cy="-211.4833" rx="27" ry="18"/>
<text text-anchor="middle" x="147.416" y="-207.2833" font-family="Times,serif" font-size="14.00" fill="#000000">root</text>
</g>
<!-- 16 -->
<g id="node3" class="node">
<title>16</title>
<ellipse fill="none" stroke="#000000" cx="197.872" cy="-354.1875" rx="27" ry="18"/>
</g>
<!-- 17 -->
<g id="node4" class="node">
<title>17</title>
<ellipse fill="none" stroke="#000000" cx="89.9368" cy="-290.7064" rx="27" ry="18"/>
<text text-anchor="middle" x="89.9368" y="-286.5064" font-family="Times,serif" font-size="14.00" fill="#000000">leaf</text>
</g>
<!-- 8 -->
<g id="node5" class="node">
<title>8</title>
<ellipse fill="none" stroke="#000000" cx="113.8668" cy="-145.2746" rx="27" ry="18"/>
</g>
<!-- 14 -->
<g id="node6" class="node">
<title>14</title>
<ellipse fill="none" stroke="#000000" cx="39.4679" cy="-136.2573" rx="27" ry="18"/>
<text text-anchor="middle" x="39.4679" y="-132.0573" font-family="Times,serif" font-size="14.00" fill="#000000">leaf</text>
</g>
<!-- 15 -->
<g id="node7" class="node">
<title>15</title>
<ellipse fill="none" stroke="#000000" cx="130.2322" cy="-73.1927" rx="27" ry="18"/>
</g>
<!-- 20 -->
<g id="node8" class="node">
<title>20</title>
<ellipse fill="none" stroke="#000000" cx="179.9697" cy="-22.2475" rx="27" ry="18"/>
<text text-anchor="middle" x="179.9697" y="-18.0475" font-family="Times,serif" font-size="14.00" fill="#000000">leaf</text>
</g>
<!-- 21 -->
<g id="node9" class="node">
<title>21</title>
<ellipse fill="none" stroke="#000000" cx="83.0019" cy="-18" rx="27" ry="18"/>
<text text-anchor="middle" x="83.0019" y="-13.8" font-family="Times,serif" font-size="14.00" fill="#000000">leaf</text>
</g>
<!-- 18 -->
<g id="node10" class="node">
<title>18</title>
<ellipse fill="none" stroke="#000000" cx="157.5008" cy="-424.0336" rx="27" ry="18"/>
</g>
<!-- 19 -->
<g id="node11" class="node">
<title>19</title>
<ellipse fill="none" stroke="#000000" cx="277.514" cy="-355.5297" rx="27" ry="18"/>
</g>
<!-- 26 -->
<g id="node12" class="node">
<title>26</title>
<ellipse fill="none" stroke="#000000" cx="101.4935" cy="-478.313" rx="27" ry="18"/>
</g>
<!-- 27 -->
<g id="node13" class="node">
<title>27</title>
<ellipse fill="none" stroke="#000000" cx="202.5905" cy="-477.5405" rx="27" ry="18"/>
<text text-anchor="middle" x="202.5905" y="-473.3405" font-family="Times,serif" font-size="14.00" fill="#000000">leaf</text>
</g>
<!-- 22 -->
<g id="node14" class="node">
<title>22</title>
<ellipse fill="none" stroke="#000000" cx="313.0816" cy="-416.9777" rx="27" ry="18"/>
<text text-anchor="middle" x="313.0816" y="-412.7777" font-family="Times,serif" font-size="14.00" fill="#000000">leaf</text>
</g>
<!-- 23 -->
<g id="node15" class="node">
<title>23</title>
<ellipse fill="none" stroke="#000000" cx="351.6846" cy="-337.7554" rx="27" ry="18"/>
</g>
<!-- 24 -->
<g id="node16" class="node">
<title>24</title>
<ellipse fill="none" stroke="#000000" cx="416.0039" cy="-376.3158" rx="27" ry="18"/>
<text text-anchor="middle" x="416.0039" y="-372.1158" font-family="Times,serif" font-size="14.00" fill="#000000">leaf</text>
</g>
<!-- 25 -->
<g id="node17" class="node">
<title>25</title>
<ellipse fill="none" stroke="#000000" cx="402.2669" cy="-288.8848" rx="27" ry="18"/>
<text text-anchor="middle" x="402.2669" y="-284.6848" font-family="Times,serif" font-size="14.00" fill="#000000">leaf</text>
</g>
<!-- 28 -->
<g id="node18" class="node">
<title>28</title>
<ellipse fill="none" stroke="#000000" cx="89.0062" cy="-553.4979" rx="27" ry="18"/>
</g>
<!-- 29 -->
<g id="node19" class="node">
<title>29</title>
<ellipse fill="none" stroke="#000000" cx="29.8482" cy="-467.0506" rx="27" ry="18"/>
<text text-anchor="middle" x="29.8482" y="-462.8506" font-family="Times,serif" font-size="14.00" fill="#000000">leaf</text>
</g>
<!-- 30 -->
<g id="node20" class="node">
<title>30</title>
<ellipse fill="none" stroke="#000000" cx="27" cy="-591.1921" rx="27" ry="18"/>
<text text-anchor="middle" x="27" y="-586.9921" font-family="Times,serif" font-size="14.00" fill="#000000">leaf</text>
</g>
<!-- 31 -->
<g id="node21" class="node">
<title>31</title>
<ellipse fill="none" stroke="#000000" cx="117.6337" cy="-619.9278" rx="27" ry="18"/>
<text text-anchor="middle" x="117.6337" y="-615.7278" font-family="Times,serif" font-size="14.00" fill="#000000">leaf</text>
</g>
<!-- 32 -->
</g>
</svg>
