<?xml version="1.0" encoding="UTF-8" standalone="no"?>
<!DOCTYPE svg PUBLIC "-//W3C//DTD SVG 1.1//EN"
 "http://www.w3.org/Graphics/SVG/1.1/DTD/svg11.dtd">
<!-- Generated by graphviz version 2.40.1 (20161225.0304)
 -->
<!-- Pages: 1 -->
<svg width="269pt" height="374pt"
 viewBox="0.00 0.00 269.47 373.79" xmlns="http://www.w3.org/2000/svg" xmlns:xlink="http://www.w3.org/1999/xlink">
<g id="graph0" class="graph" transform="scale(1 1) rotate(0) translate(4 369.7905)">
<polygon fill="#ffffff" stroke="transparent" points="-4,4 -4,-369.7905 265.4666,-369.7905 265.4666,4 -4,4"/>
<!-- 0&#45;&gt;11 -->
<g id="edge1" class="edge">
<title>0&#45;&gt;11</title>
<path fill="none" stroke="#000000" d="M32.7287,-249.8096C34.9787,-257.6785 37.6808,-267.1284 40.1908,-275.9068"/>
<polygon fill="#000000" stroke="#000000" points="36.8962,-277.1159 43.0106,-285.7683 43.6265,-275.1914 36.8962,-277.1159"/>
</g>
<!-- 11&#45;&gt;10 -->
<g id="edge13" class="edge">
<title>11&#45;&gt;10</title>
<path fill="none" stroke="#000000" d="M66.5527,-317.228C71.3376,-320.7254 76.5903,-324.5648 81.7085,-328.3057"/>
<polygon fill="#000000" stroke="#000000" points="79.9498,-331.3556 90.0885,-334.4309 84.0805,-325.7042 79.9498,-331.3556"/>
</g>
<!-- 6&#45;&gt;5 -->
<g id="edge8" class="edge">
<title>6&#45;&gt;5</title>
<path fill="none" stroke="#000000" d="M162.103,-64.8181C164.4777,-58.7107 167.198,-51.7145 169.7991,-45.0248"/>
<polygon fill="#000000" stroke="#000000" points="173.1088,-46.1708 173.4707,-35.5822 166.5846,-43.634 173.1088,-46.1708"/>
</g>
<!-- 1&#45;&gt;6 -->
<g id="edge2" class="edge">
<title>1&#45;&gt;6</title>
<path fill="none" stroke="#000000" d="M181.3073,-129.3669C177.7972,-123.0409 173.7361,-115.7221 169.8804,-108.7733"/>
<polygon fill="#000000" stroke="#000000" points="172.7332,-106.7009 164.8208,-99.655 166.6124,-110.0973 172.7332,-106.7009"/>
</g>
<!-- 1&#45;&gt;9 -->
<g id="edge3" class="edge">
<title>1&#45;&gt;9</title>
<path fill="none" stroke="#000000" d="M166.4255,-154.5397C163.8016,-155.3979 161.0984,-156.2821 158.3878,-157.1687"/>
<polygon fill="#000000" stroke="#000000" points="157.0837,-153.9127 148.6673,-160.3481 159.2599,-160.5658 157.0837,-153.9127"/>
</g>
<!-- 9&#45;&gt;3 -->
<g id="edge11" class="edge">
<title>9&#45;&gt;3</title>
<path fill="none" stroke="#000000" d="M97.1391,-166.4179C95.6411,-166.312 94.1238,-166.2048 92.5996,-166.0971"/>
<polygon fill="#000000" stroke="#000000" points="92.7889,-162.6018 82.567,-165.3881 92.2954,-169.5844 92.7889,-162.6018"/>
</g>
<!-- 2&#45;&gt;1 -->
<g id="edge4" class="edge">
<title>2&#45;&gt;1</title>
<path fill="none" stroke="#000000" d="M222.5464,-190.1397C218.3146,-184.3217 213.4527,-177.6372 208.8277,-171.2785"/>
<polygon fill="#000000" stroke="#000000" points="211.4619,-168.9499 202.7493,-162.9216 205.801,-173.0674 211.4619,-168.9499"/>
</g>
<!-- 3&#45;&gt;0 -->
<g id="edge5" class="edge">
<title>3&#45;&gt;0</title>
<path fill="none" stroke="#000000" d="M48.4426,-181.1522C45.4947,-188.3774 42.0166,-196.9018 38.7578,-204.8888"/>
<polygon fill="#000000" stroke="#000000" points="35.4791,-203.66 34.9419,-214.2412 41.9603,-206.3045 35.4791,-203.66"/>
</g>
<!-- 3&#45;&gt;4 -->
<g id="edge6" class="edge">
<title>3&#45;&gt;4</title>
<path fill="none" stroke="#000000" d="M61.532,-145.6657C63.9109,-138.4576 66.7129,-129.9676 69.3465,-121.9879"/>
<polygon fill="#000000" stroke="#000000" points="72.7373,-122.8812 72.5478,-112.288 66.09,-120.6873 72.7373,-122.8812"/>
<text text-anchor="middle" x="42.1118" y="-121.2268" font-family="Times,serif" font-size="14.00" fill="#000000">contains</text>
</g>
<!-- 4&#45;&gt;6 -->
<g id="edge7" class="edge">
<title>4&#45;&gt;6</title>
<path fill="none" stroke="#000000" d="M104.9084,-90.204C109.1535,-89.5478 113.6155,-88.8581 118.0564,-88.1717"/>
<polygon fill="#000000" stroke="#000000" points="118.9201,-91.5799 128.2681,-86.5933 117.8508,-84.662 118.9201,-91.5799"/>
<text text-anchor="middle" x="133.2573" y="-93.3878" font-family="Times,serif" font-size="14.00" fill="#000000">unlocks</text>
</g>
<!-- 7&#45;&gt;2 -->
<g id="edge9" class="edge">
<title>7&#45;&gt;2</title>
<path fill="none" stroke="#000000" d="M231.4918,-262.4258C231.9368,-254.0635 232.4736,-243.9769 232.968,-234.6871"/>
<polygon fill="#000000" stroke="#000000" points="236.4646,-234.8434 233.501,-224.6715 229.4744,-234.4714 236.4646,-234.8434"/>
</g>
<!-- 8&#45;&gt;7 -->
<g id="edge10" class="edge">
<title>8&#45;&gt;7</title>
<path fill="none" stroke="#000000" d="M195.6198,-321.7051C200.232,-316.2959 205.4956,-310.1229 210.5116,-304.2401"/>
<polygon fill="#000000" stroke="#000000" points="213.2889,-306.3772 217.1139,-296.4969 207.9623,-301.8354 213.2889,-306.3772"/>
</g>
<!-- 10&#45;&gt;8 -->
<g id="edge12" class="edge">
<title>10&#45;&gt;8</title>
<path fill="none" stroke="#000000" d="M135.0025,-344.0777C138.3046,-343.6175 141.7258,-343.1406 145.1482,-342.6636"/>
<polygon fill="#000000" stroke="#000000" points="145.8803,-346.0955 155.3014,-341.2484 144.9139,-339.1625 145.8803,-346.0955"/>
</g>
<!-- 0 -->
<g id="node1" class="node">
<title>0</title>
<ellipse fill="#ffffff" stroke="#000000" cx="27.6609" cy="-232.086" rx="27.8228" ry="18"/>
<text text-anchor="middle" x="27.6609" y="-227.886" font-family="Times,serif" font-size="14.00" fill="#000000">start</text>
</g>
<!-- 11 -->
<g id="node2" class="node">
<title>11</title>
<ellipse fill="#ffffff" stroke="#000000" cx="48.1625" cy="-303.7861" rx="27" ry="18"/>
<text text-anchor="middle" x="48.1625" y="-299.5861" font-family="Times,serif" font-size="14.00" fill="#000000">11</text>
</g>
<!-- 6 -->
<g id="node3" class="node">
<title>6</title>
<ellipse fill="#ffffff" stroke="#000000" cx="155.2584" cy="-82.4215" rx="27.8286" ry="18"/>
<text text-anchor="middle" x="155.2584" y="-78.2215" font-family="Times,serif" font-size="14.00" fill="#000000">lock</text>
</g>
<!-- 1 -->
<g id="node4" class="node">
<title>1</title>
<ellipse fill="#ffffff" stroke="#000000" cx="190.8434" cy="-146.5529" rx="27" ry="18"/>
<text text-anchor="middle" x="190.8434" y="-142.3529" font-family="Times,serif" font-size="14.00" fill="#000000">1</text>
</g>
<!-- 9 -->
<g id="node5" class="node">
<title>9</title>
<ellipse fill="#ffffff" stroke="#000000" cx="124.2523" cy="-168.3339" rx="27" ry="18"/>
<text text-anchor="middle" x="124.2523" y="-164.1339" font-family="Times,serif" font-size="14.00" fill="#000000">9</text>
</g>
<!-- 2 -->
<g id="node6" class="node">
<title>2</title>
<ellipse fill="#ffffff" stroke="#000000" cx="234.4666" cy="-206.5282" rx="27" ry="18"/>
<text text-anchor="middle" x="234.4666" y="-202.3282" font-family="Times,serif" font-size="14.00" fill="#000000">2</text>
</g>
<!-- 3 -->
<g id="node7" class="node">
<title>3</title>
<ellipse fill="#ffffff" stroke="#000000" cx="55.6507" cy="-163.486" rx="27" ry="18"/>
<text text-anchor="middle" x="55.6507" y="-159.286" font-family="Times,serif" font-size="14.00" fill="#000000">3</text>
</g>
<!-- 4 -->
<g id="node8" class="node">
<title>4</title>
<ellipse fill="#ffffff" stroke="#000000" cx="78.4885" cy="-94.2876" rx="27" ry="18"/>
<text text-anchor="middle" x="78.4885" y="-90.0876" font-family="Times,serif" font-size="14.00" fill="#000000">key</text>
</g>
<!-- 5 -->
<g id="node9" class="node">
<title>5</title>
<ellipse fill="#ffffff" stroke="#000000" cx="180.3071" cy="-18" rx="27.8286" ry="18"/>
<text text-anchor="middle" x="180.3071" y="-13.8" font-family="Times,serif" font-size="14.00" fill="#000000">goal</text>
</g>
<!-- 7 -->
<g id="node10" class="node">
<title>7</title>
<ellipse fill="#ffffff" stroke="#000000" cx="230.5149" cy="-280.7802" rx="27" ry="18"/>
<text text-anchor="middle" x="230.5149" y="-276.5802" font-family="Times,serif" font-size="14.00" fill="#000000">7</text>
</g>
<!-- 8 -->
<g id="node11" class="node">
<title>8</title>
<ellipse fill="#ffffff" stroke="#000000" cx="182.1465" cy="-337.5065" rx="27" ry="18"/>
<text text-anchor="middle" x="182.1465" y="-333.3065" font-family="Times,serif" font-size="14.00" fill="#000000">8</text>
</g>
<!-- 10 -->
<g id="node12" class="node">
<title>10</title>
<ellipse fill="#ffffff" stroke="#000000" cx="108.3661" cy="-347.7905" rx="27" ry="18"/>
<text text-anchor="middle" x="108.3661" y="-343.5905" font-family="Times,serif" font-size="14.00" fill="#000000">10</text>
</g>
</g>
</svg>
