<?xml version="1.0" encoding="UTF-8" standalone="no"?>
<!DOCTYPE svg PUBLIC "-//W3C//DTD SVG 1.1//EN"
 "http://www.w3.org/Graphics/SVG/1.1/DTD/svg11.dtd">
<!-- Generated by graphviz version 2.40.1 (20161225.0304)
 -->
<!-- Pages: 1 -->
<svg width="307pt" height="223pt"
 viewBox="0.00 0.00 306.57 222.55" xmlns="http://www.w3.org/2000/svg" xmlns:xlink="http://www.w3.org/1999/xlink">
<g id="graph0" class="graph" transform="scale(1 1) rotate(0) translate(4 218.551)">
<polygon fill="#ffffff" stroke="transparent" points="-4,4 -4,-218.551 302.57,-218.551 302.57,4 -4,4"/>
<!-- 0 -->
<g id="node1" class="node">
<title>0</title>
<ellipse fill="none" stroke="#00ff00" cx="27" cy="-196.551" rx="27" ry="18"/>
<text text-anchor="middle" x="27" y="-192.351" font-family="Times,serif" font-size="14.00" fill="#000000">A</text>
</g>
<!-- 1 -->
<g id="node2" class="node">
<title>1</title>
<ellipse fill="none" stroke="#00ff00" cx="98.21" cy="-185.912" rx="27" ry="18"/>
<text text-anchor="middle" x="98.21" y="-181.712" font-family="Times,serif" font-size="14.00" fill="#000000">B</text>
</g>
<!-- 0&#45;&#45;1 -->
<g id="edge1" class="edge">
<title>0&#45;&#45;1</title>
<path fill="none" stroke="#00ff00" d="M53.516,-192.5894C59.3683,-191.7151 65.5718,-190.7882 71.4344,-189.9124"/>
<text text-anchor="middle" x="58.9752" y="-195.4509" font-family="Times,serif" font-size="14.00" fill="#000000">x</text>
</g>
<!-- 3 -->
<g id="node3" class="node">
<title>3</title>
<ellipse fill="none" stroke="#a020f0" cx="27" cy="-99.252" rx="27" ry="18"/>
<text text-anchor="middle" x="27" y="-95.052" font-family="Times,serif" font-size="14.00" fill="#000000">0</text>
</g>
<!-- 4 -->
<g id="node4" class="node">
<title>4</title>
<ellipse fill="none" stroke="#a020f0" cx="114.86" cy="-126.867" rx="27" ry="18"/>
<text text-anchor="middle" x="114.86" y="-122.667" font-family="Times,serif" font-size="14.00" fill="#000000">1</text>
</g>
<!-- 3&#45;&#45;4 -->
<g id="edge2" class="edge">
<title>3&#45;&#45;4</title>
<path fill="none" stroke="#a020f0" d="M51.4739,-106.9443C63.5585,-110.7426 78.1046,-115.3145 90.2126,-119.1202"/>
<text text-anchor="middle" x="67.3433" y="-100.4322" font-family="Times,serif" font-size="14.00" fill="#000000">x</text>
</g>
<!-- 5 -->
<g id="node5" class="node">
<title>5</title>
<ellipse fill="none" stroke="#000000" cx="56.097" cy="-47.752" rx="27" ry="18"/>
<text text-anchor="middle" x="56.097" y="-43.552" font-family="Times,serif" font-size="14.00" fill="#000000">2</text>
</g>
<!-- 3&#45;&#45;5 -->
<g id="edge3" class="edge">
<title>3&#45;&#45;5</title>
<path fill="none" stroke="#000000" d="M36.5274,-82.389C39.7097,-76.7566 43.2572,-70.4777 46.4485,-64.8292"/>
<text text-anchor="middle" x="37.988" y="-77.8091" font-family="Times,serif" font-size="14.00" fill="#000000">x</text>
</g>
<!-- 6 -->
<g id="node6" class="node">
<title>6</title>
<ellipse fill="none" stroke="#000000" cx="57.117" cy="-139.912" rx="27" ry="18"/>
<text text-anchor="middle" x="57.117" y="-135.712" font-family="Times,serif" font-size="14.00" fill="#000000">3</text>
</g>
<!-- 3&#45;&#45;6 -->
<g id="edge4" class="edge">
<title>3&#45;&#45;6</title>
<path fill="none" stroke="#000000" d="M39.2497,-115.79C41.1388,-118.3404 43.0891,-120.9733 44.9758,-123.5205"/>
<text text-anchor="middle" x="38.6128" y="-123.8552" font-family="Times,serif" font-size="14.00" fill="#000000">b</text>
</g>
<!-- 4&#45;&#45;6 -->
<g id="edge5" class="edge">
<title>4&#45;&#45;6</title>
<path fill="none" stroke="#000000" d="M89.0285,-132.7027C86.9866,-133.164 84.9242,-133.6299 82.8827,-134.0911"/>
<text text-anchor="middle" x="84.402" y="-120.7969" font-family="Times,serif" font-size="14.00" fill="#000000">a</text>
</g>
<!-- 5&#45;&#45;6 -->
<g id="edge6" class="edge">
<title>5&#45;&#45;6</title>
<path fill="none" stroke="#000000" d="M56.2985,-65.9599C56.4773,-82.1168 56.7372,-105.5965 56.9159,-121.742"/>
<text text-anchor="middle" x="59.7145" y="-98.0509" font-family="Times,serif" font-size="14.00" fill="#000000">c</text>
</g>
<!-- 2 -->
<g id="node7" class="node">
<title>2</title>
<ellipse fill="none" stroke="#ff0000" cx="201.509" cy="-185.912" rx="49.7981" ry="18"/>
<text text-anchor="middle" x="201.509" y="-181.712" font-family="Times,serif" font-size="14.00" fill="#000000">A:merged</text>
</g>
<!-- 7 -->
<g id="node8" class="node">
<title>7</title>
<ellipse fill="none" stroke="#0000ff" cx="199.366" cy="-79.934" rx="47.5119" ry="18"/>
<text text-anchor="middle" x="199.366" y="-75.734" font-family="Times,serif" font-size="14.00" fill="#000000">1:merged</text>
</g>
<!-- 8 -->
<g id="node9" class="node">
<title>8</title>
<ellipse fill="none" stroke="#0000ff" cx="271.57" cy="-80.408" rx="27" ry="18"/>
<text text-anchor="middle" x="271.57" y="-76.208" font-family="Times,serif" font-size="14.00" fill="#000000">2</text>
</g>
<!-- 7&#45;&#45;8 -->
<g id="edge7" class="edge">
<title>7&#45;&#45;8</title>
<path fill="none" stroke="#0000ff" d="M247.125,-80.2475C247.2299,-80.2482 247.3347,-80.2489 247.4393,-80.2496"/>
<text text-anchor="middle" x="250.7822" y="-84.4486" font-family="Times,serif" font-size="14.00" fill="#000000">x</text>
</g>
<!-- 9 -->
<g id="node10" class="node">
<title>9</title>
<ellipse fill="none" stroke="#0000ff" cx="235.958" cy="-18" rx="27" ry="18"/>
<text text-anchor="middle" x="235.958" y="-13.8" font-family="Times,serif" font-size="14.00" fill="#000000">3</text>
</g>
<!-- 7&#45;&#45;9 -->
<g id="edge8" class="edge">
<title>7&#45;&#45;9</title>
<path fill="none" stroke="#0000ff" d="M209.7539,-62.3519C214.825,-53.7689 220.8996,-43.4871 225.9228,-34.9852"/>
<text text-anchor="middle" x="214.3384" y="-52.8685" font-family="Times,serif" font-size="14.00" fill="#000000">b</text>
</g>
<!-- 8&#45;&#45;9 -->
<g id="edge9" class="edge">
<title>8&#45;&#45;9</title>
<path fill="none" stroke="#0000ff" d="M261.8389,-63.3547C256.814,-54.5489 250.7006,-43.8355 245.6774,-35.0326"/>
<text text-anchor="middle" x="250.6508" y="-53.3937" font-family="Times,serif" font-size="14.00" fill="#000000">c</text>
</g>
</g>
</svg>
