<?xml version="1.0" encoding="UTF-8" standalone="no"?>
<!DOCTYPE svg PUBLIC "-//W3C//DTD SVG 1.1//EN"
 "http://www.w3.org/Graphics/SVG/1.1/DTD/svg11.dtd">
<!-- Generated by graphviz version 2.40.1 (20161225.0304)
 -->
<!-- Pages: 1 -->
<svg width="509pt" height="337pt"
 viewBox="0.00 0.00 509.34 336.54" xmlns="http://www.w3.org/2000/svg" xmlns:xlink="http://www.w3.org/1999/xlink">
<g id="graph0" class="graph" transform="scale(1 1) rotate(0) translate(4 332.539)">
<polygon fill="#ffffff" stroke="transparent" points="-4,4 -4,-332.539 505.34,-332.539 505.34,4 -4,4"/>
<!-- 0 -->
<g id="node1" class="node">
<title>0</title>
<ellipse fill="none" stroke="#00ff00" cx="27" cy="-310.539" rx="27" ry="18"/>
<text text-anchor="middle" x="27" y="-306.339" font-family="Times,serif" font-size="14.00" fill="#000000">A</text>
</g>
<!-- 1 -->
<g id="node2" class="node">
<title>1</title>
<ellipse fill="none" stroke="#00ff00" cx="98.21" cy="-299.9" rx="27" ry="18"/>
<text text-anchor="middle" x="98.21" y="-295.7" font-family="Times,serif" font-size="14.00" fill="#000000">B</text>
</g>
<!-- 0&#45;&#45;1 -->
<g id="edge1" class="edge">
<title>0&#45;&#45;1</title>
<path fill="none" stroke="#00ff00" d="M53.516,-306.5774C59.3683,-305.7031 65.5718,-304.7762 71.4344,-303.9004"/>
<text text-anchor="middle" x="65.1978" y="-292.6389" font-family="Times,serif" font-size="14.00" fill="#000000">:x</text>
</g>
<!-- 9 -->
<g id="node3" class="node">
<title>9</title>
<ellipse fill="none" stroke="#0000ff" cx="289.76" cy="-104.76" rx="27" ry="18"/>
<text text-anchor="middle" x="289.76" y="-100.56" font-family="Times,serif" font-size="14.00" fill="#000000">0</text>
</g>
<!-- 10 -->
<g id="node4" class="node">
<title>10</title>
<ellipse fill="none" stroke="#0000ff" cx="365.71" cy="-121.41" rx="47.5119" ry="18"/>
<text text-anchor="middle" x="365.71" y="-117.21" font-family="Times,serif" font-size="14.00" fill="#000000">2:merged</text>
</g>
<!-- 9&#45;&#45;10 -->
<g id="edge2" class="edge">
<title>9&#45;&#45;10</title>
<path fill="none" stroke="#0000ff" d="M315.4732,-110.3969C318.3996,-111.0385 321.4347,-111.7038 324.4982,-112.3754"/>
</g>
<!-- 12 -->
<g id="node5" class="node">
<title>12</title>
<ellipse fill="none" stroke="#0000ff" cx="420.14" cy="-67.226" rx="27" ry="18"/>
<text text-anchor="middle" x="420.14" y="-63.026" font-family="Times,serif" font-size="14.00" fill="#000000">4</text>
</g>
<!-- 10&#45;&#45;12 -->
<g id="edge3" class="edge">
<title>10&#45;&#45;12</title>
<path fill="none" stroke="#0000ff" d="M382.6336,-104.5629C389.7489,-97.4798 397.9647,-89.3011 404.89,-82.4071"/>
<text text-anchor="middle" x="388.3165" y="-80.885" font-family="Times,serif" font-size="14.00" fill="#000000">:x</text>
</g>
<!-- 13 -->
<g id="node6" class="node">
<title>13</title>
<ellipse fill="none" stroke="#0000ff" cx="381.32" cy="-197.6" rx="27" ry="18"/>
<text text-anchor="middle" x="381.32" y="-193.4" font-family="Times,serif" font-size="14.00" fill="#000000">5</text>
</g>
<!-- 10&#45;&#45;13 -->
<g id="edge4" class="edge">
<title>10&#45;&#45;13</title>
<path fill="none" stroke="#0000ff" d="M369.4094,-139.466C371.8977,-151.6113 375.1644,-167.5555 377.6472,-179.6736"/>
</g>
<!-- 11 -->
<g id="node7" class="node">
<title>11</title>
<ellipse fill="none" stroke="#0000ff" cx="474.34" cy="-18" rx="27" ry="18"/>
<text text-anchor="middle" x="474.34" y="-13.8" font-family="Times,serif" font-size="14.00" fill="#000000">3</text>
</g>
<!-- 11&#45;&#45;12 -->
<g id="edge5" class="edge">
<title>11&#45;&#45;12</title>
<path fill="none" stroke="#0000ff" d="M458.0782,-32.7694C451.2183,-38.9998 443.249,-46.2377 436.3903,-52.467"/>
</g>
<!-- 2 -->
<g id="node8" class="node">
<title>2</title>
<ellipse fill="none" stroke="#ff0000" cx="312.409" cy="-299.9" rx="49.7981" ry="18"/>
<text text-anchor="middle" x="312.409" y="-295.7" font-family="Times,serif" font-size="14.00" fill="#000000">A:merged</text>
</g>
<!-- 3 -->
<g id="node9" class="node">
<title>3</title>
<ellipse fill="none" stroke="#000000" cx="27" cy="-56.878" rx="27" ry="18"/>
<text text-anchor="middle" x="27" y="-52.678" font-family="Times,serif" font-size="14.00" fill="#000000">0</text>
</g>
<!-- 4 -->
<g id="node10" class="node">
<title>4</title>
<ellipse fill="none" stroke="#a020f0" cx="87.441" cy="-107.776" rx="27" ry="18"/>
<text text-anchor="middle" x="87.441" y="-103.576" font-family="Times,serif" font-size="14.00" fill="#000000">1</text>
</g>
<!-- 3&#45;&#45;4 -->
<g id="edge6" class="edge">
<title>3&#45;&#45;4</title>
<path fill="none" stroke="#000000" d="M43.8362,-71.0559C52.0796,-77.9978 61.988,-86.3418 70.2751,-93.3204"/>
</g>
<!-- 5 -->
<g id="node11" class="node">
<title>5</title>
<ellipse fill="none" stroke="#a020f0" cx="159.32" cy="-77.95" rx="27" ry="18"/>
<text text-anchor="middle" x="159.32" y="-73.75" font-family="Times,serif" font-size="14.00" fill="#000000">2</text>
</g>
<!-- 4&#45;&#45;5 -->
<g id="edge7" class="edge">
<title>4&#45;&#45;5</title>
<path fill="none" stroke="#a020f0" d="M110.5796,-98.1747C118.7876,-94.7688 128.0203,-90.9377 136.2247,-87.5333"/>
<text text-anchor="middle" x="126.1248" y="-80.254" font-family="Times,serif" font-size="14.00" fill="#000000">:x</text>
</g>
<!-- 7 -->
<g id="node12" class="node">
<title>7</title>
<ellipse fill="none" stroke="#000000" cx="70.63" cy="-183.78" rx="27" ry="18"/>
<text text-anchor="middle" x="70.63" y="-179.58" font-family="Times,serif" font-size="14.00" fill="#000000">4</text>
</g>
<!-- 4&#45;&#45;7 -->
<g id="edge8" class="edge">
<title>4&#45;&#45;7</title>
<path fill="none" stroke="#000000" d="M83.457,-125.7879C80.7772,-137.9035 77.2592,-153.8088 74.5854,-165.8974"/>
<text text-anchor="middle" x="73.5759" y="-150.0426" font-family="Times,serif" font-size="14.00" fill="#000000">:x</text>
</g>
<!-- 8 -->
<g id="node13" class="node">
<title>8</title>
<ellipse fill="none" stroke="#000000" cx="225.76" cy="-46.15" rx="27" ry="18"/>
<text text-anchor="middle" x="225.76" y="-41.95" font-family="Times,serif" font-size="14.00" fill="#000000">5</text>
</g>
<!-- 5&#45;&#45;8 -->
<g id="edge9" class="edge">
<title>5&#45;&#45;8</title>
<path fill="none" stroke="#000000" d="M181.4436,-67.3611C188.5404,-63.9643 196.4005,-60.2023 203.5065,-56.8011"/>
</g>
<!-- 6 -->
<g id="node14" class="node">
<title>6</title>
<ellipse fill="none" stroke="#000000" cx="48.006" cy="-253.9" rx="27" ry="18"/>
<text text-anchor="middle" x="48.006" y="-249.7" font-family="Times,serif" font-size="14.00" fill="#000000">3</text>
</g>
<!-- 6&#45;&#45;7 -->
<g id="edge10" class="edge">
<title>6&#45;&#45;7</title>
<path fill="none" stroke="#000000" d="M53.715,-236.2058C57.1184,-225.6572 61.4272,-212.3028 64.8441,-201.7125"/>
</g>
</g>
</svg>
