<?xml version="1.0" encoding="UTF-8" standalone="no"?>
<!DOCTYPE svg PUBLIC "-//W3C//DTD SVG 1.1//EN"
 "http://www.w3.org/Graphics/SVG/1.1/DTD/svg11.dtd">
<!-- Generated by graphviz version 2.40.1 (20161225.0304)
 -->
<!-- Pages: 1 -->
<svg width="503pt" height="331pt"
 viewBox="0.00 0.00 503.13 330.77" xmlns="http://www.w3.org/2000/svg" xmlns:xlink="http://www.w3.org/1999/xlink">
<g id="graph0" class="graph" transform="scale(1 1) rotate(0) translate(4 326.769)">
<polygon fill="#ffffff" stroke="transparent" points="-4,4 -4,-326.769 499.13,-326.769 499.13,4 -4,4"/>
<!-- 0 -->
<g id="node1" class="node">
<title>0</title>
<ellipse fill="none" stroke="#00ff00" cx="27" cy="-304.769" rx="27" ry="18"/>
<text text-anchor="middle" x="27" y="-300.569" font-family="Times,serif" font-size="14.00" fill="#000000">A</text>
</g>
<!-- 1 -->
<g id="node2" class="node">
<title>1</title>
<ellipse fill="none" stroke="#00ff00" cx="98.21" cy="-294.13" rx="27" ry="18"/>
<text text-anchor="middle" x="98.21" y="-289.93" font-family="Times,serif" font-size="14.00" fill="#000000">B</text>
</g>
<!-- 0&#45;&#45;1 -->
<g id="edge1" class="edge">
<title>0&#45;&#45;1</title>
<path fill="none" stroke="#00ff00" d="M53.516,-300.8074C59.3683,-299.9331 65.5718,-299.0062 71.4344,-298.1304"/>
<text text-anchor="middle" x="65.1978" y="-286.8689" font-family="Times,serif" font-size="14.00" fill="#000000">:x</text>
</g>
<!-- 9 -->
<g id="node3" class="node">
<title>9</title>
<ellipse fill="none" stroke="#0000ff" cx="370.27" cy="-203.37" rx="27" ry="18"/>
<text text-anchor="middle" x="370.27" y="-199.17" font-family="Times,serif" font-size="14.00" fill="#000000">0</text>
</g>
<!-- 12 -->
<g id="node4" class="node">
<title>12</title>
<ellipse fill="none" stroke="#0000ff" cx="391.2" cy="-128.45" rx="47.5119" ry="18"/>
<text text-anchor="middle" x="391.2" y="-124.25" font-family="Times,serif" font-size="14.00" fill="#000000">4:merged</text>
</g>
<!-- 9&#45;&#45;12 -->
<g id="edge2" class="edge">
<title>9&#45;&#45;12</title>
<path fill="none" stroke="#0000ff" d="M375.2301,-185.615C378.5182,-173.8452 382.8198,-158.4474 386.1301,-146.598"/>
</g>
<!-- 10 -->
<g id="node5" class="node">
<title>10</title>
<ellipse fill="none" stroke="#0000ff" cx="340.768" cy="-70.534" rx="27" ry="18"/>
<text text-anchor="middle" x="340.768" y="-66.334" font-family="Times,serif" font-size="14.00" fill="#000000">2</text>
</g>
<!-- 10&#45;&#45;12 -->
<g id="edge3" class="edge">
<title>10&#45;&#45;12</title>
<path fill="none" stroke="#0000ff" d="M354.5488,-86.3598C361.1982,-93.996 369.1935,-103.1778 376.0175,-111.0144"/>
<text text-anchor="middle" x="370.7284" y="-86.0871" font-family="Times,serif" font-size="14.00" fill="#000000">:x</text>
</g>
<!-- 13 -->
<g id="node6" class="node">
<title>13</title>
<ellipse fill="none" stroke="#0000ff" cx="289.76" cy="-18" rx="27" ry="18"/>
<text text-anchor="middle" x="289.76" y="-13.8" font-family="Times,serif" font-size="14.00" fill="#000000">5</text>
</g>
<!-- 10&#45;&#45;13 -->
<g id="edge4" class="edge">
<title>10&#45;&#45;13</title>
<path fill="none" stroke="#0000ff" d="M326.0144,-55.339C319.3059,-48.4298 311.3828,-40.2697 304.6572,-33.3429"/>
</g>
<!-- 11 -->
<g id="node7" class="node">
<title>11</title>
<ellipse fill="none" stroke="#0000ff" cx="468.13" cy="-117.18" rx="27" ry="18"/>
<text text-anchor="middle" x="468.13" y="-112.98" font-family="Times,serif" font-size="14.00" fill="#000000">3</text>
</g>
<!-- 11&#45;&#45;12 -->
<g id="edge5" class="edge">
<title>11&#45;&#45;12</title>
<path fill="none" stroke="#0000ff" d="M441.6551,-121.0585C439.6558,-121.3514 437.6084,-121.6513 435.5379,-121.9546"/>
</g>
<!-- 2 -->
<g id="node8" class="node">
<title>2</title>
<ellipse fill="none" stroke="#ff0000" cx="312.409" cy="-294.13" rx="49.7981" ry="18"/>
<text text-anchor="middle" x="312.409" y="-289.93" font-family="Times,serif" font-size="14.00" fill="#000000">A:merged</text>
</g>
<!-- 3 -->
<g id="node9" class="node">
<title>3</title>
<ellipse fill="none" stroke="#000000" cx="27" cy="-51.108" rx="27" ry="18"/>
<text text-anchor="middle" x="27" y="-46.908" font-family="Times,serif" font-size="14.00" fill="#000000">0</text>
</g>
<!-- 4 -->
<g id="node10" class="node">
<title>4</title>
<ellipse fill="none" stroke="#a020f0" cx="87.441" cy="-102.006" rx="27" ry="18"/>
<text text-anchor="middle" x="87.441" y="-97.806" font-family="Times,serif" font-size="14.00" fill="#000000">1</text>
</g>
<!-- 3&#45;&#45;4 -->
<g id="edge6" class="edge">
<title>3&#45;&#45;4</title>
<path fill="none" stroke="#000000" d="M43.8362,-65.2859C52.0796,-72.2278 61.988,-80.5718 70.2751,-87.5504"/>
</g>
<!-- 5 -->
<g id="node11" class="node">
<title>5</title>
<ellipse fill="none" stroke="#000000" cx="159.32" cy="-72.18" rx="27" ry="18"/>
<text text-anchor="middle" x="159.32" y="-67.98" font-family="Times,serif" font-size="14.00" fill="#000000">2</text>
</g>
<!-- 4&#45;&#45;5 -->
<g id="edge7" class="edge">
<title>4&#45;&#45;5</title>
<path fill="none" stroke="#000000" d="M110.5796,-92.4047C118.7876,-88.9988 128.0203,-85.1677 136.2247,-81.7633"/>
<text text-anchor="middle" x="126.1248" y="-74.484" font-family="Times,serif" font-size="14.00" fill="#000000">:x</text>
</g>
<!-- 7 -->
<g id="node12" class="node">
<title>7</title>
<ellipse fill="none" stroke="#a020f0" cx="70.63" cy="-178.01" rx="27" ry="18"/>
<text text-anchor="middle" x="70.63" y="-173.81" font-family="Times,serif" font-size="14.00" fill="#000000">4</text>
</g>
<!-- 4&#45;&#45;7 -->
<g id="edge8" class="edge">
<title>4&#45;&#45;7</title>
<path fill="none" stroke="#a020f0" d="M83.457,-120.0179C80.7772,-132.1335 77.2592,-148.0388 74.5854,-160.1274"/>
<text text-anchor="middle" x="73.5759" y="-144.2726" font-family="Times,serif" font-size="14.00" fill="#000000">:x</text>
</g>
<!-- 8 -->
<g id="node13" class="node">
<title>8</title>
<ellipse fill="none" stroke="#000000" cx="225.76" cy="-40.38" rx="27" ry="18"/>
<text text-anchor="middle" x="225.76" y="-36.18" font-family="Times,serif" font-size="14.00" fill="#000000">5</text>
</g>
<!-- 5&#45;&#45;8 -->
<g id="edge9" class="edge">
<title>5&#45;&#45;8</title>
<path fill="none" stroke="#000000" d="M181.4436,-61.5911C188.5404,-58.1943 196.4005,-54.4323 203.5065,-51.0311"/>
</g>
<!-- 6 -->
<g id="node14" class="node">
<title>6</title>
<ellipse fill="none" stroke="#000000" cx="48.006" cy="-248.13" rx="27" ry="18"/>
<text text-anchor="middle" x="48.006" y="-243.93" font-family="Times,serif" font-size="14.00" fill="#000000">3</text>
</g>
<!-- 6&#45;&#45;7 -->
<g id="edge10" class="edge">
<title>6&#45;&#45;7</title>
<path fill="none" stroke="#000000" d="M53.715,-230.4358C57.1184,-219.8872 61.4272,-206.5328 64.8441,-195.9425"/>
</g>
</g>
</svg>
