<?xml version="1.0" encoding="UTF-8" standalone="no"?>
<!DOCTYPE svg PUBLIC "-//W3C//DTD SVG 1.1//EN"
 "http://www.w3.org/Graphics/SVG/1.1/DTD/svg11.dtd">
<!-- Generated by graphviz version 2.40.1 (20161225.0304)
 -->
<!-- Pages: 1 -->
<svg width="835pt" height="527pt"
 viewBox="0.00 0.00 834.98 527.48" xmlns="http://www.w3.org/2000/svg" xmlns:xlink="http://www.w3.org/1999/xlink">
<g id="graph0" class="graph" transform="scale(1 1) rotate(0) translate(4 523.48)">
<polygon fill="#ffffff" stroke="transparent" points="-4,4 -4,-523.48 830.9752,-523.48 830.9752,4 -4,4"/>
<!-- 0 -->
<g id="node1" class="node">
<title>0</title>
<ellipse fill="none" stroke="#00ff00" cx="305.77" cy="-275.212" rx="27" ry="18"/>
<text text-anchor="middle" x="305.77" y="-271.012" font-family="Times,serif" font-size="14.00" fill="#000000">F</text>
</g>
<!-- 2 -->
<g id="node2" class="node">
<title>2</title>
<ellipse fill="none" stroke="#00ff00" cx="372.51" cy="-247.43" rx="27" ry="18"/>
<text text-anchor="middle" x="372.51" y="-243.23" font-family="Times,serif" font-size="14.00" fill="#000000">G</text>
</g>
<!-- 0&#45;&#45;2 -->
<g id="edge1" class="edge">
<title>0&#45;&#45;2</title>
<path fill="none" stroke="#00ff00" d="M328.7381,-265.651C335.3744,-262.8885 342.6205,-259.8722 349.273,-257.1029"/>
</g>
<!-- 3 -->
<g id="node3" class="node">
<title>3</title>
<ellipse fill="none" stroke="#00ff00" cx="242.81" cy="-310.905" rx="27" ry="18"/>
<text text-anchor="middle" x="242.81" y="-306.705" font-family="Times,serif" font-size="14.00" fill="#000000">E</text>
</g>
<!-- 0&#45;&#45;3 -->
<g id="edge2" class="edge">
<title>0&#45;&#45;3</title>
<path fill="none" stroke="#00ff00" d="M285.1545,-286.8992C278.2689,-290.8028 270.5928,-295.1545 263.6873,-299.0693"/>
</g>
<!-- 5 -->
<g id="node7" class="node">
<title>5</title>
<ellipse fill="none" stroke="#00ff00" cx="185.78" cy="-355.43" rx="27" ry="18"/>
<text text-anchor="middle" x="185.78" y="-351.23" font-family="Times,serif" font-size="14.00" fill="#000000">D</text>
</g>
<!-- 3&#45;&#45;5 -->
<g id="edge5" class="edge">
<title>3&#45;&#45;5</title>
<path fill="none" stroke="#00ff00" d="M225.078,-324.7489C218.2768,-330.0588 210.5159,-336.118 203.6975,-341.4413"/>
</g>
<!-- 1 -->
<g id="node4" class="node">
<title>1</title>
<ellipse fill="none" stroke="#00ff00" cx="86.225" cy="-460.16" rx="27" ry="18"/>
<text text-anchor="middle" x="86.225" y="-455.96" font-family="Times,serif" font-size="14.00" fill="#000000">B</text>
</g>
<!-- 4 -->
<g id="node5" class="node">
<title>4</title>
<ellipse fill="none" stroke="#00ff00" cx="136.41" cy="-408.24" rx="27" ry="18"/>
<text text-anchor="middle" x="136.41" y="-404.04" font-family="Times,serif" font-size="14.00" fill="#000000">C</text>
</g>
<!-- 1&#45;&#45;4 -->
<g id="edge3" class="edge">
<title>1&#45;&#45;4</title>
<path fill="none" stroke="#00ff00" d="M101.0107,-444.8631C107.4872,-438.1627 115.0724,-430.3153 121.5565,-423.607"/>
</g>
<!-- 6 -->
<g id="node6" class="node">
<title>6</title>
<ellipse fill="none" stroke="#00ff00" cx="27" cy="-501.48" rx="27" ry="18"/>
<text text-anchor="middle" x="27" y="-497.28" font-family="Times,serif" font-size="14.00" fill="#000000">A</text>
</g>
<!-- 1&#45;&#45;6 -->
<g id="edge4" class="edge">
<title>1&#45;&#45;6</title>
<path fill="none" stroke="#00ff00" d="M67.4858,-473.2339C60.5725,-478.0572 52.741,-483.521 45.8205,-488.3493"/>
</g>
<!-- 4&#45;&#45;5 -->
<g id="edge6" class="edge">
<title>4&#45;&#45;5</title>
<path fill="none" stroke="#00ff00" d="M150.9556,-392.6809C157.3269,-385.8657 164.7889,-377.8837 171.1678,-371.0604"/>
</g>
<!-- 7 -->
<g id="node8" class="node">
<title>7</title>
<ellipse fill="none" stroke="#ff0000" cx="725.59" cy="-275.212" rx="31.3583" ry="18"/>
<text text-anchor="middle" x="725.59" y="-271.012" font-family="Times,serif" font-size="14.00" fill="#000000">F:6th</text>
</g>
<!-- 9 -->
<g id="node9" class="node">
<title>9</title>
<ellipse fill="none" stroke="#ff0000" cx="792.34" cy="-247.43" rx="34.7709" ry="18"/>
<text text-anchor="middle" x="792.34" y="-243.23" font-family="Times,serif" font-size="14.00" fill="#000000">G:end</text>
</g>
<!-- 7&#45;&#45;9 -->
<g id="edge7" class="edge">
<title>7&#45;&#45;9</title>
<path fill="none" stroke="#ff0000" d="M751.2064,-264.5502C755.7653,-262.6527 760.5287,-260.6702 765.1301,-258.755"/>
</g>
<!-- 10 -->
<g id="node10" class="node">
<title>10</title>
<ellipse fill="none" stroke="#ff0000" cx="662.64" cy="-310.905" rx="31.9205" ry="18"/>
<text text-anchor="middle" x="662.64" y="-306.705" font-family="Times,serif" font-size="14.00" fill="#000000">E:5th</text>
</g>
<!-- 7&#45;&#45;10 -->
<g id="edge8" class="edge">
<title>7&#45;&#45;10</title>
<path fill="none" stroke="#ff0000" d="M703.2189,-287.8965C697.4233,-291.1827 691.1771,-294.7243 685.3636,-298.0206"/>
</g>
<!-- 12 -->
<g id="node14" class="node">
<title>12</title>
<ellipse fill="none" stroke="#ff0000" cx="605.61" cy="-355.43" rx="33.0643" ry="18"/>
<text text-anchor="middle" x="605.61" y="-351.23" font-family="Times,serif" font-size="14.00" fill="#000000">D:4th</text>
</g>
<!-- 10&#45;&#45;12 -->
<g id="edge11" class="edge">
<title>10&#45;&#45;12</title>
<path fill="none" stroke="#ff0000" d="M643.6498,-325.7312C637.5582,-330.4871 630.8113,-335.7546 624.7117,-340.5168"/>
</g>
<!-- 8 -->
<g id="node11" class="node">
<title>8</title>
<ellipse fill="none" stroke="#ff0000" cx="506.051" cy="-460.16" rx="34.7922" ry="18"/>
<text text-anchor="middle" x="506.051" y="-455.96" font-family="Times,serif" font-size="14.00" fill="#000000">B:2nd</text>
</g>
<!-- 11 -->
<g id="node12" class="node">
<title>11</title>
<ellipse fill="none" stroke="#ff0000" cx="556.24" cy="-408.24" rx="33.0643" ry="18"/>
<text text-anchor="middle" x="556.24" y="-404.04" font-family="Times,serif" font-size="14.00" fill="#000000">C:3rd</text>
</g>
<!-- 8&#45;&#45;11 -->
<g id="edge9" class="edge">
<title>8&#45;&#45;11</title>
<path fill="none" stroke="#ff0000" d="M521.656,-444.0168C527.7564,-437.706 534.7343,-430.4874 540.817,-424.1949"/>
</g>
<!-- 13 -->
<g id="node13" class="node">
<title>13</title>
<ellipse fill="none" stroke="#ff0000" cx="446.826" cy="-501.48" rx="37.1328" ry="18"/>
<text text-anchor="middle" x="446.826" y="-497.28" font-family="Times,serif" font-size="14.00" fill="#000000">A:start</text>
</g>
<!-- 8&#45;&#45;13 -->
<g id="edge10" class="edge">
<title>8&#45;&#45;13</title>
<path fill="none" stroke="#ff0000" d="M485.337,-474.6117C479.8664,-478.4284 473.9492,-482.5567 468.4328,-486.4054"/>
</g>
<!-- 11&#45;&#45;12 -->
<g id="edge12" class="edge">
<title>11&#45;&#45;12</title>
<path fill="none" stroke="#ff0000" d="M571.3209,-392.1083C577.3326,-385.6777 584.2446,-378.2841 590.2807,-371.8274"/>
</g>
<!-- 14 -->
<g id="node15" class="node">
<title>14</title>
<ellipse fill="none" stroke="#000000" cx="119.16" cy="-110.04" rx="27" ry="18"/>
<text text-anchor="middle" x="119.16" y="-105.84" font-family="Times,serif" font-size="14.00" fill="#000000">0</text>
</g>
<!-- 15 -->
<g id="node16" class="node">
<title>15</title>
<ellipse fill="none" stroke="#000000" cx="37.474" cy="-97.556" rx="27" ry="18"/>
<text text-anchor="middle" x="37.474" y="-93.356" font-family="Times,serif" font-size="14.00" fill="#000000">1</text>
</g>
<!-- 14&#45;&#45;15 -->
<g id="edge13" class="edge">
<title>14&#45;&#45;15</title>
<path fill="none" stroke="#000000" d="M92.4129,-105.9523C83.2932,-104.5585 73.1047,-103.0014 64.0022,-101.6103"/>
</g>
<!-- 18 -->
<g id="node17" class="node">
<title>18</title>
<ellipse fill="none" stroke="#a020f0" cx="131.17" cy="-28.292" rx="27" ry="18"/>
<text text-anchor="middle" x="131.17" y="-24.092" font-family="Times,serif" font-size="14.00" fill="#000000">4</text>
</g>
<!-- 14&#45;&#45;18 -->
<g id="edge14" class="edge">
<title>14&#45;&#45;18</title>
<path fill="none" stroke="#000000" d="M121.8254,-91.8975C123.8157,-78.3504 126.5236,-59.9186 128.512,-46.3838"/>
</g>
<!-- 19 -->
<g id="node18" class="node">
<title>19</title>
<ellipse fill="none" stroke="#a020f0" cx="200.93" cy="-121.87" rx="27" ry="18"/>
<text text-anchor="middle" x="200.93" y="-117.67" font-family="Times,serif" font-size="14.00" fill="#000000">5</text>
</g>
<!-- 14&#45;&#45;19 -->
<g id="edge15" class="edge">
<title>14&#45;&#45;19</title>
<path fill="none" stroke="#000000" d="M145.9346,-113.9136C155.0637,-115.2343 165.2627,-116.7099 174.3746,-118.0281"/>
</g>
<!-- 22 -->
<g id="node19" class="node">
<title>22</title>
<ellipse fill="none" stroke="#a020f0" cx="106.59" cy="-191.69" rx="27" ry="18"/>
<text text-anchor="middle" x="106.59" y="-187.49" font-family="Times,serif" font-size="14.00" fill="#000000">8</text>
</g>
<!-- 14&#45;&#45;22 -->
<g id="edge16" class="edge">
<title>14&#45;&#45;22</title>
<path fill="none" stroke="#000000" d="M116.3703,-128.1608C114.2872,-141.6916 111.4531,-160.1013 109.3719,-173.6199"/>
</g>
<!-- 17 -->
<g id="node20" class="node">
<title>17</title>
<ellipse fill="none" stroke="#a020f0" cx="27" cy="-177.57" rx="27" ry="18"/>
<text text-anchor="middle" x="27" y="-173.37" font-family="Times,serif" font-size="14.00" fill="#000000">3</text>
</g>
<!-- 15&#45;&#45;17 -->
<g id="edge17" class="edge">
<title>15&#45;&#45;17</title>
<path fill="none" stroke="#000000" d="M35.0973,-115.7124C33.3832,-128.8072 31.0793,-146.4072 29.3673,-159.4854"/>
</g>
<!-- 20 -->
<g id="node21" class="node">
<title>20</title>
<ellipse fill="none" stroke="#a020f0" cx="51.128" cy="-18" rx="27" ry="18"/>
<text text-anchor="middle" x="51.128" y="-13.8" font-family="Times,serif" font-size="14.00" fill="#000000">6</text>
</g>
<!-- 15&#45;&#45;20 -->
<g id="edge18" class="edge">
<title>15&#45;&#45;20</title>
<path fill="none" stroke="#000000" d="M40.5723,-79.5035C42.8069,-66.4837 45.8102,-48.9844 48.042,-35.981"/>
</g>
<!-- 18&#45;&#45;20 -->
<g id="edge22" class="edge">
<title>18&#45;&#45;20</title>
<path fill="none" stroke="#a020f0" d="M104.5172,-24.8649C95.8765,-23.7539 86.2966,-22.5221 77.6644,-21.4121"/>
</g>
<!-- 21 -->
<g id="node23" class="node">
<title>21</title>
<ellipse fill="none" stroke="#a020f0" cx="186.81" cy="-201.43" rx="27" ry="18"/>
<text text-anchor="middle" x="186.81" y="-197.23" font-family="Times,serif" font-size="14.00" fill="#000000">7</text>
</g>
<!-- 19&#45;&#45;21 -->
<g id="edge23" class="edge">
<title>19&#45;&#45;21</title>
<path fill="none" stroke="#a020f0" d="M197.726,-139.9234C195.4151,-152.9439 192.3093,-170.444 190.0014,-183.448"/>
</g>
<!-- 17&#45;&#45;22 -->
<g id="edge21" class="edge">
<title>17&#45;&#45;22</title>
<path fill="none" stroke="#a020f0" d="M53.5023,-182.2718C62.1846,-183.8121 71.8206,-185.5216 80.4742,-187.0568"/>
</g>
<!-- 16 -->
<g id="node22" class="node">
<title>16</title>
<ellipse fill="none" stroke="#a020f0" cx="210.74" cy="-41.638" rx="27" ry="18"/>
<text text-anchor="middle" x="210.74" y="-37.438" font-family="Times,serif" font-size="14.00" fill="#000000">2</text>
</g>
<!-- 16&#45;&#45;18 -->
<g id="edge19" class="edge">
<title>16&#45;&#45;18</title>
<path fill="none" stroke="#a020f0" d="M184.2443,-37.194C175.6547,-35.7533 166.1312,-34.1559 157.55,-32.7166"/>
</g>
<!-- 16&#45;&#45;19 -->
<g id="edge20" class="edge">
<title>16&#45;&#45;19</title>
<path fill="none" stroke="#a020f0" d="M208.514,-59.8439C206.9085,-72.9743 204.7507,-90.6223 203.1472,-103.7362"/>
</g>
<!-- 21&#45;&#45;22 -->
<g id="edge24" class="edge">
<title>21&#45;&#45;22</title>
<path fill="none" stroke="#a020f0" d="M160.0979,-198.1867C151.438,-197.1353 141.8368,-195.9695 133.1855,-194.9191"/>
</g>
<!-- 23 -->
<g id="node24" class="node">
<title>23</title>
<ellipse fill="none" stroke="#0000ff" cx="536.84" cy="-110.04" rx="27" ry="18"/>
<text text-anchor="middle" x="536.84" y="-105.84" font-family="Times,serif" font-size="14.00" fill="#000000">0</text>
</g>
<!-- 24 -->
<g id="node25" class="node">
<title>24</title>
<ellipse fill="none" stroke="#0000ff" cx="455.157" cy="-97.556" rx="27" ry="18"/>
<text text-anchor="middle" x="455.157" y="-93.356" font-family="Times,serif" font-size="14.00" fill="#000000">1</text>
</g>
<!-- 23&#45;&#45;24 -->
<g id="edge25" class="edge">
<title>23&#45;&#45;24</title>
<path fill="none" stroke="#0000ff" d="M510.0939,-105.9523C500.9745,-104.5585 490.7864,-103.0014 481.6842,-101.6103"/>
</g>
<!-- 27 -->
<g id="node26" class="node">
<title>27</title>
<ellipse fill="none" stroke="#0000ff" cx="548.85" cy="-28.292" rx="30.7789" ry="18"/>
<text text-anchor="middle" x="548.85" y="-24.092" font-family="Times,serif" font-size="14.00" fill="#000000">4:6th</text>
</g>
<!-- 23&#45;&#45;27 -->
<g id="edge26" class="edge">
<title>23&#45;&#45;27</title>
<path fill="none" stroke="#0000ff" d="M539.5054,-91.8975C541.4957,-78.3504 544.2036,-59.9186 546.192,-46.3838"/>
</g>
<!-- 28 -->
<g id="node27" class="node">
<title>28</title>
<ellipse fill="none" stroke="#0000ff" cx="618.61" cy="-121.87" rx="30.7789" ry="18"/>
<text text-anchor="middle" x="618.61" y="-117.67" font-family="Times,serif" font-size="14.00" fill="#000000">5:4th</text>
</g>
<!-- 23&#45;&#45;28 -->
<g id="edge27" class="edge">
<title>23&#45;&#45;28</title>
<path fill="none" stroke="#0000ff" d="M563.6146,-113.9136C571.5327,-115.0591 580.2557,-116.3211 588.3761,-117.4959"/>
</g>
<!-- 31 -->
<g id="node28" class="node">
<title>31</title>
<ellipse fill="none" stroke="#0000ff" cx="524.27" cy="-191.69" rx="33.0682" ry="18"/>
<text text-anchor="middle" x="524.27" y="-187.49" font-family="Times,serif" font-size="14.00" fill="#000000">8:2nd</text>
</g>
<!-- 23&#45;&#45;31 -->
<g id="edge28" class="edge">
<title>23&#45;&#45;31</title>
<path fill="none" stroke="#0000ff" d="M534.0503,-128.1608C531.9672,-141.6916 529.1331,-160.1013 527.0519,-173.6199"/>
</g>
<!-- 26 -->
<g id="node29" class="node">
<title>26</title>
<ellipse fill="none" stroke="#0000ff" cx="444.683" cy="-177.57" rx="35.347" ry="18"/>
<text text-anchor="middle" x="444.683" y="-173.37" font-family="Times,serif" font-size="14.00" fill="#000000">3:start</text>
</g>
<!-- 24&#45;&#45;26 -->
<g id="edge29" class="edge">
<title>24&#45;&#45;26</title>
<path fill="none" stroke="#0000ff" d="M452.7803,-115.7124C451.0662,-128.8072 448.7623,-146.4072 447.0503,-159.4854"/>
</g>
<!-- 29 -->
<g id="node30" class="node">
<title>29</title>
<ellipse fill="none" stroke="#0000ff" cx="468.811" cy="-18" rx="32.4846" ry="18"/>
<text text-anchor="middle" x="468.811" y="-13.8" font-family="Times,serif" font-size="14.00" fill="#000000">6:end</text>
</g>
<!-- 24&#45;&#45;29 -->
<g id="edge30" class="edge">
<title>24&#45;&#45;29</title>
<path fill="none" stroke="#0000ff" d="M458.2553,-79.5035C460.4899,-66.4837 463.4932,-48.9844 465.725,-35.981"/>
</g>
<!-- 27&#45;&#45;29 -->
<g id="edge34" class="edge">
<title>27&#45;&#45;29</title>
<path fill="none" stroke="#0000ff" d="M518.5907,-24.401C512.7472,-23.6496 506.608,-22.8602 500.7141,-22.1023"/>
</g>
<!-- 30 -->
<g id="node32" class="node">
<title>30</title>
<ellipse fill="none" stroke="#0000ff" cx="604.49" cy="-201.43" rx="31.341" ry="18"/>
<text text-anchor="middle" x="604.49" y="-197.23" font-family="Times,serif" font-size="14.00" fill="#000000">7:3rd</text>
</g>
<!-- 28&#45;&#45;30 -->
<g id="edge35" class="edge">
<title>28&#45;&#45;30</title>
<path fill="none" stroke="#0000ff" d="M615.406,-139.9234C613.0951,-152.9439 609.9893,-170.444 607.6814,-183.448"/>
</g>
<!-- 26&#45;&#45;31 -->
<g id="edge33" class="edge">
<title>26&#45;&#45;31</title>
<path fill="none" stroke="#0000ff" d="M477.9739,-183.4763C482.8298,-184.3378 487.8185,-185.2229 492.64,-186.0783"/>
</g>
<!-- 25 -->
<g id="node31" class="node">
<title>25</title>
<ellipse fill="none" stroke="#0000ff" cx="628.42" cy="-41.638" rx="30.7789" ry="18"/>
<text text-anchor="middle" x="628.42" y="-37.438" font-family="Times,serif" font-size="14.00" fill="#000000">2:5th</text>
</g>
<!-- 25&#45;&#45;27 -->
<g id="edge31" class="edge">
<title>25&#45;&#45;27</title>
<path fill="none" stroke="#0000ff" d="M598.338,-36.5924C591.9126,-35.5147 585.1276,-34.3767 578.7106,-33.3004"/>
</g>
<!-- 25&#45;&#45;28 -->
<g id="edge32" class="edge">
<title>25&#45;&#45;28</title>
<path fill="none" stroke="#0000ff" d="M626.194,-59.8439C624.5885,-72.9743 622.4307,-90.6223 620.8272,-103.7362"/>
</g>
<!-- 30&#45;&#45;31 -->
<g id="edge36" class="edge">
<title>30&#45;&#45;31</title>
<path fill="none" stroke="#0000ff" d="M573.7043,-197.6921C568.137,-197.0162 562.3161,-196.3094 556.7034,-195.6279"/>
</g>
</g>
</svg>
