<?xml version="1.0" encoding="UTF-8" standalone="no"?>
<!DOCTYPE svg PUBLIC "-//W3C//DTD SVG 1.1//EN"
 "http://www.w3.org/Graphics/SVG/1.1/DTD/svg11.dtd">
<!-- Generated by graphviz version 2.40.1 (20161225.0304)
 -->
<!-- Pages: 1 -->
<svg width="452pt" height="443pt"
 viewBox="0.00 0.00 451.75 443.05" xmlns="http://www.w3.org/2000/svg" xmlns:xlink="http://www.w3.org/1999/xlink">
<g id="graph0" class="graph" transform="scale(1 1) rotate(0) translate(4 439.0464)">
<polygon fill="#ffffff" stroke="transparent" points="-4,4 -4,-439.0464 447.7471,-439.0464 447.7471,4 -4,4"/>
<!-- 0&#45;&#45;12 -->
<g id="edge1" class="edge">
<title>0&#45;&#45;12</title>
<path fill="none" stroke="#000000" d="M250.8595,-398.9889C255.4709,-393.7715 260.5059,-388.0746 265.1285,-382.8444"/>
</g>
<!-- 0&#45;&#45;14 -->
<g id="edge2" class="edge">
<title>0&#45;&#45;14</title>
<path fill="none" stroke="#000000" d="M216.8417,-402.8401C210.8102,-398.0951 204.0863,-392.8054 198.0375,-388.0468"/>
</g>
<!-- 12&#45;&#45;22 -->
<g id="edge30" class="edge">
<title>12&#45;&#45;22</title>
<path fill="none" stroke="#000000" d="M296.756,-346.5157C301.722,-340.7225 307.2221,-334.3062 312.1946,-328.5054"/>
</g>
<!-- 14&#45;&#45;26 -->
<g id="edge31" class="edge">
<title>14&#45;&#45;26</title>
<path fill="none" stroke="#000000" d="M161.6103,-358.8085C155.5516,-353.8479 148.7973,-348.318 142.7212,-343.3432"/>
</g>
<!-- 1&#45;&#45;12 -->
<g id="edge3" class="edge">
<title>1&#45;&#45;12</title>
<path fill="none" stroke="#000000" d="M243.1878,-333.5019C249.5259,-338.6728 256.724,-344.5454 263.1432,-349.7825"/>
</g>
<!-- 1&#45;&#45;14 -->
<g id="edge4" class="edge">
<title>1&#45;&#45;14</title>
<path fill="none" stroke="#000000" d="M212.6241,-335.1517C207.1814,-341.5272 200.857,-348.9355 195.2176,-355.5415"/>
</g>
<!-- 1&#45;&#45;17 -->
<g id="edge5" class="edge">
<title>1&#45;&#45;17</title>
<path fill="none" stroke="#000000" d="M239.5281,-303.555C245.1388,-296.9488 251.6763,-289.2513 257.4616,-282.4396"/>
</g>
<!-- 1&#45;&#45;25 -->
<g id="edge6" class="edge">
<title>1&#45;&#45;25</title>
<path fill="none" stroke="#000000" d="M208.9747,-305.4072C202.1871,-299.797 194.383,-293.3467 187.5678,-287.7137"/>
</g>
<!-- 17&#45;&#45;22 -->
<g id="edge33" class="edge">
<title>17&#45;&#45;22</title>
<path fill="none" stroke="#000000" d="M290.775,-279.4559C296.7902,-284.4779 303.4959,-290.0764 309.5284,-295.1129"/>
</g>
<!-- 25&#45;&#45;26 -->
<g id="edge40" class="edge">
<title>25&#45;&#45;26</title>
<path fill="none" stroke="#000000" d="M156.9812,-289.2861C151.579,-295.7457 145.3015,-303.2519 139.7039,-309.9451"/>
</g>
<!-- 2&#45;&#45;7 -->
<g id="edge7" class="edge">
<title>2&#45;&#45;7</title>
<path fill="none" stroke="#000000" d="M272.2362,-76.118C278.8007,-81.5313 286.2916,-87.7085 292.8728,-93.1355"/>
</g>
<!-- 2&#45;&#45;18 -->
<g id="edge8" class="edge">
<title>2&#45;&#45;18</title>
<path fill="none" stroke="#000000" d="M241.5805,-77.5864C235.4236,-84.6715 228.1519,-93.0395 221.9793,-100.1428"/>
</g>
<!-- 2&#45;&#45;19 -->
<g id="edge9" class="edge">
<title>2&#45;&#45;19</title>
<path fill="none" stroke="#000000" d="M237.9245,-48.0811C231.5803,-42.9445 224.3935,-37.1257 218.0427,-31.9837"/>
</g>
<!-- 7&#45;&#45;11 -->
<g id="edge19" class="edge">
<title>7&#45;&#45;11</title>
<path fill="none" stroke="#000000" d="M296.7662,-123.2119C291.3143,-129.6461 284.9792,-137.1226 279.3302,-143.7894"/>
</g>
<!-- 18&#45;&#45;27 -->
<g id="edge34" class="edge">
<title>18&#45;&#45;27</title>
<path fill="none" stroke="#000000" d="M194.7257,-131.7879C189.092,-138.3882 182.5278,-146.0788 176.7189,-152.8844"/>
</g>
<!-- 3&#45;&#45;5 -->
<g id="edge10" class="edge">
<title>3&#45;&#45;5</title>
<path fill="none" stroke="#000000" d="M120.5271,-108.6105C126.6767,-101.4869 133.9398,-93.0734 140.1051,-85.9315"/>
</g>
<!-- 3&#45;&#45;8 -->
<g id="edge11" class="edge">
<title>3&#45;&#45;8</title>
<path fill="none" stroke="#000000" d="M93.8697,-140.2551C88.4221,-146.883 82.0745,-154.6056 76.4574,-161.4396"/>
</g>
<!-- 3&#45;&#45;27 -->
<g id="edge12" class="edge">
<title>3&#45;&#45;27</title>
<path fill="none" stroke="#000000" d="M123.6046,-138.5152C129.8481,-143.8696 136.9736,-149.9805 143.3395,-155.4399"/>
</g>
<!-- 5&#45;&#45;18 -->
<g id="edge15" class="edge">
<title>5&#45;&#45;18</title>
<path fill="none" stroke="#000000" d="M170.7209,-84.3415C177.2258,-89.7991 184.6486,-96.0269 191.17,-101.4984"/>
</g>
<!-- 5&#45;&#45;19 -->
<g id="edge16" class="edge">
<title>5&#45;&#45;19</title>
<path fill="none" stroke="#000000" d="M167.8659,-54.4769C173.8158,-47.8812 180.7279,-40.2189 186.6768,-33.6244"/>
</g>
<!-- 8&#45;&#45;15 -->
<g id="edge20" class="edge">
<title>8&#45;&#45;15</title>
<path fill="none" stroke="#000000" d="M47.0806,-197.7829C42.4236,-203.642 37.2658,-210.1312 32.6028,-215.9979"/>
</g>
<!-- 8&#45;&#45;24 -->
<g id="edge21" class="edge">
<title>8&#45;&#45;24</title>
<path fill="none" stroke="#000000" d="M79.7404,-195.4521C85.3273,-200.3591 91.4764,-205.7597 97.062,-210.6656"/>
</g>
<!-- 4&#45;&#45;6 -->
<g id="edge13" class="edge">
<title>4&#45;&#45;6</title>
<path fill="none" stroke="#000000" d="M400.452,-185.8847C394.803,-180.8792 388.4335,-175.2353 382.6341,-170.0967"/>
</g>
<!-- 4&#45;&#45;23 -->
<g id="edge14" class="edge">
<title>4&#45;&#45;23</title>
<path fill="none" stroke="#000000" d="M403.8893,-216.469C398.2573,-223.5411 391.6612,-231.824 386.0225,-238.9046"/>
</g>
<!-- 6&#45;&#45;7 -->
<g id="edge17" class="edge">
<title>6&#45;&#45;7</title>
<path fill="none" stroke="#000000" d="M346.3003,-138.4055C340.0215,-133.0172 333.0098,-127 326.8461,-121.7104"/>
</g>
<!-- 6&#45;&#45;9 -->
<g id="edge18" class="edge">
<title>6&#45;&#45;9</title>
<path fill="none" stroke="#000000" d="M349.2141,-172.1806C344.2592,-178.1741 338.76,-184.826 333.8215,-190.7996"/>
</g>
<!-- 9&#45;&#45;17 -->
<g id="edge23" class="edge">
<title>9&#45;&#45;17</title>
<path fill="none" stroke="#000000" d="M303.8056,-227.0308C298.653,-233.2374 292.8967,-240.1713 287.7538,-246.3661"/>
</g>
<!-- 9&#45;&#45;23 -->
<g id="edge24" class="edge">
<title>9&#45;&#45;23</title>
<path fill="none" stroke="#000000" d="M336.9614,-224.2438C343.2421,-229.6099 350.2559,-235.6022 356.4215,-240.8699"/>
</g>
<!-- 9&#45;&#45;11 -->
<g id="edge22" class="edge">
<title>9&#45;&#45;11</title>
<path fill="none" stroke="#000000" d="M300.8818,-193.5191C294.8579,-188.406 288.1424,-182.7058 282.1011,-177.578"/>
</g>
<!-- 11&#45;&#45;18 -->
<g id="edge29" class="edge">
<title>11&#45;&#45;18</title>
<path fill="none" stroke="#000000" d="M245.654,-146.9478C239.0749,-141.4742 231.6776,-135.3199 225.2127,-129.9413"/>
</g>
<!-- 15&#45;&#45;20 -->
<g id="edge32" class="edge">
<title>15&#45;&#45;20</title>
<path fill="none" stroke="#000000" d="M36.1717,-250.9196C41.205,-255.5035 46.6692,-260.4799 51.7068,-265.0677"/>
</g>
<!-- 24&#45;&#45;25 -->
<g id="edge38" class="edge">
<title>24&#45;&#45;25</title>
<path fill="none" stroke="#000000" d="M133.219,-241.9156C139.7442,-247.4634 147.0809,-253.7011 153.4928,-259.1526"/>
</g>
<!-- 24&#45;&#45;27 -->
<g id="edge39" class="edge">
<title>24&#45;&#45;27</title>
<path fill="none" stroke="#000000" d="M130.3023,-208.3465C135.4565,-202.1284 141.2148,-195.1816 146.3593,-188.9753"/>
</g>
<!-- 10&#45;&#45;17 -->
<g id="edge26" class="edge">
<title>10&#45;&#45;17</title>
<path fill="none" stroke="#000000" d="M235.2558,-233.005C241.4824,-238.2199 248.4387,-244.0459 254.6535,-249.2509"/>
</g>
<!-- 10&#45;&#45;25 -->
<g id="edge27" class="edge">
<title>10&#45;&#45;25</title>
<path fill="none" stroke="#000000" d="M201.6916,-235.9481C195.8351,-242.9278 189.2083,-250.8257 183.5544,-257.564"/>
</g>
<!-- 10&#45;&#45;27 -->
<g id="edge28" class="edge">
<title>10&#45;&#45;27</title>
<path fill="none" stroke="#000000" d="M198.7749,-202.379C192.5628,-197.1515 185.6227,-191.3113 179.4224,-186.0937"/>
</g>
<!-- 10&#45;&#45;11 -->
<g id="edge25" class="edge">
<title>10&#45;&#45;11</title>
<path fill="none" stroke="#000000" d="M232.3321,-199.4933C237.5617,-193.2819 243.4043,-186.3426 248.624,-180.143"/>
</g>
<!-- 22&#45;&#45;23 -->
<g id="edge37" class="edge">
<title>22&#45;&#45;23</title>
<path fill="none" stroke="#000000" d="M342.6122,-292.26C348.1906,-285.4665 354.4895,-277.7957 359.908,-271.1969"/>
</g>
<!-- 20&#45;&#45;24 -->
<g id="edge35" class="edge">
<title>20&#45;&#45;24</title>
<path fill="none" stroke="#000000" d="M84.766,-263.6446C89.7125,-257.618 95.2269,-250.8997 100.1877,-244.8558"/>
</g>
<!-- 20&#45;&#45;26 -->
<g id="edge36" class="edge">
<title>20&#45;&#45;26</title>
<path fill="none" stroke="#000000" d="M88.0689,-297.21C93.8791,-302.1892 100.3142,-307.7039 106.132,-312.6896"/>
</g>
<!-- 0 -->
<g id="node1" class="node">
<title>0</title>
<polygon fill="#00ff00" stroke="#000000" points="252.8998,-435.0464 216.8998,-435.0464 216.8998,-399.0464 252.8998,-399.0464 252.8998,-435.0464"/>
<text text-anchor="middle" x="234.8998" y="-412.8464" font-family="Times,serif" font-size="14.00" fill="#000000">0</text>
</g>
<!-- 12 -->
<g id="node2" class="node">
<title>12</title>
<polygon fill="#00ff00" stroke="#000000" points="299.2751,-382.5755 263.2751,-382.5755 263.2751,-346.5755 299.2751,-346.5755 299.2751,-382.5755"/>
<text text-anchor="middle" x="281.2751" y="-360.3755" font-family="Times,serif" font-size="14.00" fill="#000000">12</text>
</g>
<!-- 14 -->
<g id="node3" class="node">
<title>14</title>
<polygon fill="#00ff00" stroke="#000000" points="197.75,-391.6601 161.75,-391.6601 161.75,-355.6601 197.75,-355.6601 197.75,-391.6601"/>
<text text-anchor="middle" x="179.75" y="-369.4601" font-family="Times,serif" font-size="14.00" fill="#000000">14</text>
</g>
<!-- 1 -->
<g id="node4" class="node">
<title>1</title>
<ellipse fill="none" stroke="#000000" cx="226.0021" cy="-319.4809" rx="27" ry="18"/>
<text text-anchor="middle" x="226.0021" y="-315.2809" font-family="Times,serif" font-size="14.00" fill="#000000">x</text>
</g>
<!-- 17 -->
<g id="node5" class="node">
<title>17</title>
<polygon fill="#0000ff" stroke="#000000" points="290.7657,-282.4202 254.7657,-282.4202 254.7657,-246.4202 290.7657,-246.4202 290.7657,-282.4202"/>
<text text-anchor="middle" x="272.7657" y="-260.2202" font-family="Times,serif" font-size="14.00" fill="#000000">17</text>
</g>
<!-- 25 -->
<g id="node6" class="node">
<title>25</title>
<ellipse fill="none" stroke="#000000" cx="170.26" cy="-273.4083" rx="27" ry="18"/>
<text text-anchor="middle" x="170.26" y="-269.2083" font-family="Times,serif" font-size="14.00" fill="#000000">x</text>
</g>
<!-- 2 -->
<g id="node7" class="node">
<title>2</title>
<ellipse fill="none" stroke="#000000" cx="255.121" cy="-62.0044" rx="27" ry="18"/>
<text text-anchor="middle" x="255.121" y="-57.8044" font-family="Times,serif" font-size="14.00" fill="#000000">x</text>
</g>
<!-- 7 -->
<g id="node8" class="node">
<title>7</title>
<ellipse fill="none" stroke="#000000" cx="310.1669" cy="-107.3967" rx="27" ry="18"/>
<text text-anchor="middle" x="310.1669" y="-103.1967" font-family="Times,serif" font-size="14.00" fill="#000000">x</text>
</g>
<!-- 18 -->
<g id="node9" class="node">
<title>18</title>
<ellipse fill="none" stroke="#000000" cx="208.307" cy="-115.8764" rx="27" ry="18"/>
<text text-anchor="middle" x="208.307" y="-111.6764" font-family="Times,serif" font-size="14.00" fill="#000000">x</text>
</g>
<!-- 19 -->
<g id="node10" class="node">
<title>19</title>
<ellipse fill="none" stroke="#000000" cx="200.7715" cy="-18" rx="27" ry="18"/>
<text text-anchor="middle" x="200.7715" y="-13.8" font-family="Times,serif" font-size="14.00" fill="#000000">x</text>
</g>
<!-- 3 -->
<g id="node11" class="node">
<title>3</title>
<ellipse fill="none" stroke="#000000" cx="107.0026" cy="-124.2772" rx="27" ry="18"/>
<text text-anchor="middle" x="107.0026" y="-120.0772" font-family="Times,serif" font-size="14.00" fill="#000000">x</text>
</g>
<!-- 5 -->
<g id="node12" class="node">
<title>5</title>
<ellipse fill="none" stroke="#000000" cx="153.7613" cy="-70.1124" rx="27" ry="18"/>
<text text-anchor="middle" x="153.7613" y="-65.9124" font-family="Times,serif" font-size="14.00" fill="#000000">x</text>
</g>
<!-- 8 -->
<g id="node13" class="node">
<title>8</title>
<polygon fill="#ff0000" stroke="#000000" points="79.5981,-197.5179 43.5981,-197.5179 43.5981,-161.5179 79.5981,-161.5179 79.5981,-197.5179"/>
<text text-anchor="middle" x="61.5981" y="-175.3179" font-family="Times,serif" font-size="14.00" fill="#000000">8</text>
</g>
<!-- 27 -->
<g id="node14" class="node">
<title>27</title>
<polygon fill="#ff0000" stroke="#000000" points="179.3522,-188.8876 143.3522,-188.8876 143.3522,-152.8876 179.3522,-152.8876 179.3522,-188.8876"/>
<text text-anchor="middle" x="161.3522" y="-166.6876" font-family="Times,serif" font-size="14.00" fill="#000000">27</text>
</g>
<!-- 4 -->
<g id="node15" class="node">
<title>4</title>
<ellipse fill="none" stroke="#000000" cx="416.7471" cy="-200.3232" rx="27" ry="18"/>
<text text-anchor="middle" x="416.7471" y="-196.1232" font-family="Times,serif" font-size="14.00" fill="#000000">x</text>
</g>
<!-- 6 -->
<g id="node16" class="node">
<title>6</title>
<polygon fill="#0000ff" stroke="#000000" points="382.3387,-171.8857 346.3387,-171.8857 346.3387,-135.8857 382.3387,-135.8857 382.3387,-171.8857"/>
<text text-anchor="middle" x="364.3387" y="-149.6857" font-family="Times,serif" font-size="14.00" fill="#000000">6</text>
</g>
<!-- 23 -->
<g id="node17" class="node">
<title>23</title>
<ellipse fill="none" stroke="#000000" cx="373.1058" cy="-255.1243" rx="27" ry="18"/>
<text text-anchor="middle" x="373.1058" y="-250.9243" font-family="Times,serif" font-size="14.00" fill="#000000">x</text>
</g>
<!-- 9 -->
<g id="node18" class="node">
<title>9</title>
<polygon fill="#0000ff" stroke="#000000" points="336.9174,-226.8278 300.9174,-226.8278 300.9174,-190.8278 336.9174,-190.8278 336.9174,-226.8278"/>
<text text-anchor="middle" x="318.9174" y="-204.6278" font-family="Times,serif" font-size="14.00" fill="#000000">9</text>
</g>
<!-- 11 -->
<g id="node19" class="node">
<title>11</title>
<polygon fill="#0000ff" stroke="#000000" points="281.8364,-180.0749 245.8364,-180.0749 245.8364,-144.0749 281.8364,-144.0749 281.8364,-180.0749"/>
<text text-anchor="middle" x="263.8364" y="-157.8749" font-family="Times,serif" font-size="14.00" fill="#000000">11</text>
</g>
<!-- 15 -->
<g id="node20" class="node">
<title>15</title>
<polygon fill="#ff0000" stroke="#000000" points="36,-252.3702 0,-252.3702 0,-216.3702 36,-216.3702 36,-252.3702"/>
<text text-anchor="middle" x="18" y="-230.1702" font-family="Times,serif" font-size="14.00" fill="#000000">15</text>
</g>
<!-- 24 -->
<g id="node21" class="node">
<title>24</title>
<polygon fill="#ff0000" stroke="#000000" points="133.1856,-244.5834 97.1856,-244.5834 97.1856,-208.5834 133.1856,-208.5834 133.1856,-244.5834"/>
<text text-anchor="middle" x="115.1856" y="-222.3834" font-family="Times,serif" font-size="14.00" fill="#000000">24</text>
</g>
<!-- 10 -->
<g id="node22" class="node">
<title>10</title>
<polygon fill="#ff0000" stroke="#000000" points="234.9941,-235.7105 198.9941,-235.7105 198.9941,-199.7105 234.9941,-199.7105 234.9941,-235.7105"/>
<text text-anchor="middle" x="216.9941" y="-213.5105" font-family="Times,serif" font-size="14.00" fill="#000000">10</text>
</g>
<!-- 22 -->
<g id="node23" class="node">
<title>22</title>
<polygon fill="#0000ff" stroke="#000000" points="345.7664,-328.3396 309.7664,-328.3396 309.7664,-292.3396 345.7664,-292.3396 345.7664,-328.3396"/>
<text text-anchor="middle" x="327.7664" y="-306.1396" font-family="Times,serif" font-size="14.00" fill="#000000">22</text>
</g>
<!-- 26 -->
<g id="node24" class="node">
<title>26</title>
<polygon fill="#00ff00" stroke="#000000" points="142.3511,-346.3029 106.3511,-346.3029 106.3511,-310.3029 142.3511,-310.3029 142.3511,-346.3029"/>
<text text-anchor="middle" x="124.3511" y="-324.1029" font-family="Times,serif" font-size="14.00" fill="#000000">26</text>
</g>
<!-- 20 -->
<g id="node25" class="node">
<title>20</title>
<polygon fill="#00ff00" stroke="#000000" points="87.9561,-299.6878 51.9561,-299.6878 51.9561,-263.6878 87.9561,-263.6878 87.9561,-299.6878"/>
<text text-anchor="middle" x="69.9561" y="-277.4878" font-family="Times,serif" font-size="14.00" fill="#000000">20</text>
</g>
</g>
</svg>
