<?xml version="1.0" encoding="UTF-8" standalone="no"?>
<!DOCTYPE svg PUBLIC "-//W3C//DTD SVG 1.1//EN"
 "http://www.w3.org/Graphics/SVG/1.1/DTD/svg11.dtd">
<!-- Generated by graphviz version 2.40.1 (20161225.0304)
 -->
<!-- Pages: 1 -->
<svg width="434pt" height="374pt"
 viewBox="0.00 0.00 434.41 373.64" xmlns="http://www.w3.org/2000/svg" xmlns:xlink="http://www.w3.org/1999/xlink">
<g id="graph0" class="graph" transform="scale(1 1) rotate(0) translate(4 369.6362)">
<polygon fill="#ffffff" stroke="transparent" points="-4,4 -4,-369.6362 430.4103,-369.6362 430.4103,4 -4,4"/>
<!-- 1&#45;&#45;9 -->
<g id="edge1" class="edge">
<title>1&#45;&#45;9</title>
<path fill="none" stroke="#000000" d="M339.1263,-105.2932C330.9342,-115.2027 320.6791,-127.6077 312.6665,-137.3"/>
</g>
<!-- 1&#45;&#45;11 -->
<g id="edge2" class="edge">
<title>1&#45;&#45;11</title>
<path fill="none" stroke="#000000" d="M364.6343,-70.8852C371.9016,-59.8335 381.2621,-45.5986 388.4408,-34.6818"/>
</g>
<!-- 3&#45;&#45;9 -->
<g id="edge3" class="edge">
<title>3&#45;&#45;9</title>
<path fill="none" stroke="#000000" d="M255.0558,-195.0546C263.9861,-186.645 274.9144,-176.354 283.7105,-168.0709"/>
</g>
<!-- 3&#45;&#45;13 -->
<g id="edge4" class="edge">
<title>3&#45;&#45;13</title>
<path fill="none" stroke="#000000" d="M218.2524,-225.3847C209.4665,-231.7628 199.1765,-239.2329 190.3803,-245.6186"/>
</g>
<!-- 7&#45;&#45;12 -->
<g id="edge5" class="edge">
<title>7&#45;&#45;12</title>
<path fill="none" stroke="#000000" d="M46.4187,-334.6418C55.6042,-328.4951 66.5823,-321.1489 75.9348,-314.8904"/>
</g>
<!-- 12&#45;&#45;13 -->
<g id="edge6" class="edge">
<title>12&#45;&#45;13</title>
<path fill="none" stroke="#000000" d="M119.9737,-288.0964C128.5554,-283.3408 138.277,-277.9536 146.8676,-273.1931"/>
</g>
<!-- 1 -->
<g id="node1" class="node">
<title>1</title>
<ellipse fill="#ffffff" stroke="#000000" cx="353.2153" cy="-88.2505" rx="42.892" ry="18"/>
<text text-anchor="middle" x="353.2153" y="-84.0505" font-family="Times,serif" font-size="14.00" fill="#000000">is called</text>
</g>
<!-- 9 -->
<g id="node2" class="node">
<title>9</title>
<ellipse fill="#ffffff" stroke="#000000" cx="299.5916" cy="-153.116" rx="27" ry="18"/>
<text text-anchor="middle" x="299.5916" y="-148.916" font-family="Times,serif" font-size="14.00" fill="#000000">tree</text>
</g>
<!-- 11 -->
<g id="node3" class="node">
<title>11</title>
<ellipse fill="#ffffff" stroke="#000000" cx="399.4103" cy="-18" rx="27" ry="18"/>
<text text-anchor="middle" x="399.4103" y="-13.8" font-family="Times,serif" font-size="14.00" fill="#000000">Izzi</text>
</g>
<!-- 3 -->
<g id="node4" class="node">
<title>3</title>
<ellipse fill="#ffffff" stroke="#000000" cx="238.3104" cy="-210.8233" rx="33.087" ry="18"/>
<text text-anchor="middle" x="238.3104" y="-206.6233" font-family="Times,serif" font-size="14.00" fill="#000000">of the</text>
</g>
<!-- 13 -->
<g id="node5" class="node">
<title>13</title>
<ellipse fill="#ffffff" stroke="#000000" cx="170.2303" cy="-260.2467" rx="33.0411" ry="18"/>
<text text-anchor="middle" x="170.2303" y="-256.0467" font-family="Times,serif" font-size="14.00" fill="#000000">lizard</text>
</g>
<!-- 7 -->
<g id="node6" class="node">
<title>7</title>
<ellipse fill="#ffffff" stroke="#000000" cx="27" cy="-347.6362" rx="27" ry="18"/>
<text text-anchor="middle" x="27" y="-343.4362" font-family="Times,serif" font-size="14.00" fill="#000000">The</text>
</g>
<!-- 12 -->
<g id="node7" class="node">
<title>12</title>
<ellipse fill="#ffffff" stroke="#000000" cx="96.712" cy="-300.9869" rx="32.4808" ry="18"/>
<text text-anchor="middle" x="96.712" y="-296.7869" font-family="Times,serif" font-size="14.00" fill="#000000">white</text>
</g>
</g>
</svg>
